<svg data-name="Layer 1" viewBox="0 0 34.4 33.84" xmlns="http://www.w3.org/2000/svg"><defs><style>.cls-3,.cls-4{fill:#003da5}.cls-4{fill-rule:evenodd}</style></defs><path d="M33.88 16.92A16.63 16.63 0 1 1 17.25.29a16.62 16.62 0 0 1 16.63 16.63z" fill="#fff" stroke="#003da5" stroke-miterlimit="10" stroke-width=".41" style="stroke-width:.41px;stroke-miterlimit:10;fill:#fff;stroke:#003da5"/><path d="M29.39 16.92A12.14 12.14 0 1 1 17.25 4.78a12.14 12.14 0 0 1 12.14 12.14z" fill="#fff" stroke="#003da5" stroke-miterlimit="10" stroke-width=".33" style="stroke-width:.33px;stroke-miterlimit:10;fill:#fff;stroke:#003da5"/><g fill="#003da5"><path class="cls-3" d="m13.06 2 .38-.09.503 2.152-.38.089z"/><g fill-rule="evenodd"><path class="cls-4" d="M14.78 2 15 3.44l.36-.06a.4.4 0 0 0 .32-.38 1.54 1.54 0 0 0 0-.43 1.15 1.15 0 0 0-.17-.49.33.33 0 0 0-.38-.08zm.66-.44a.62.62 0 0 1 .35.24 1 1 0 0 1 .19.33 2.58 2.58 0 0 1 .09.35 1.7 1.7 0 0 1 0 .76.67.67 0 0 1-.57.5l-.8.12-.32-2.18.8-.12a1 1 0 0 1 .26.01zM17.23 2.81h.48l-.23-.88zm0-1.37h.44l.64 2.22h-.42l-.12-.45h-.69l-.08.43h-.41zM20.73 1.83 20.33 4l-.39-.07.18-.97-.72-.13-.18.97-.38-.07.41-2.18.38.08-.15.83.72.13.15-.83zM22.22 4.08a1 1 0 0 0 .34-.49 1.07 1.07 0 0 0 .07-.59.43.43 0 0 0-.69-.26 1 1 0 0 0-.34.49 1.07 1.07 0 0 0-.07.59.45.45 0 0 0 .28.32.44.44 0 0 0 .41-.06zm.12.4a.75.75 0 0 1-.67 0 .74.74 0 0 1-.48-.48 1.27 1.27 0 0 1 0-1 1.26 1.26 0 0 1 .59-.75.75.75 0 0 1 .66 0 .78.78 0 0 1 .49.46 1.26 1.26 0 0 1-.06 1 1.31 1.31 0 0 1-.53.77zM3.49 15.18l.39.02-.08 1.52-.39-.02.03-.57-1.81-.09.02-.39 1.81.09zM3.45 17.52l-.59.06v.45a.43.43 0 0 0 .06.19.27.27 0 0 0 .26.09.32.32 0 0 0 .26-.14.56.56 0 0 0 0-.2zm.41.8a.53.53 0 0 1-.13.2.78.78 0 0 1-.18.11.7.7 0 0 1-.23.06.82.82 0 0 1-.31 0 .43.43 0 0 1-.24-.2.35.35 0 0 1-.15.2 1 1 0 0 1-.34.09h-.35a.15.15 0 0 0-.12.08h-.05l-.05-.43h.51a.43.43 0 0 0 .27-.1.31.31 0 0 0 0-.24v-.4l-.86.09v-.38l2.2-.23.1.92a.66.66 0 0 1-.07.23zM2.77 19.8l.11.47.8-.43zm1.35-.28.1.43-2 1.14-.1-.41.41-.22-.15-.67h-.47l-.09-.4zM4.42 20.85l.14.39-1.17 1.25 1.44-.56.13.34-2.06.8-.14-.37 1.19-1.28-1.47.56-.13-.34zM4 23.76a.49.49 0 0 0-.16.17.37.37 0 0 0 0 .35.47.47 0 0 0 .15.18.24.24 0 0 0 .3 0 .19.19 0 0 0 .11-.15.73.73 0 0 0 0-.27v-.2a1.05 1.05 0 0 1 0-.44.56.56 0 0 1 .2-.4.74.74 0 0 1 .52-.08.69.69 0 0 1 .43.38.72.72 0 0 1 .09.53.7.7 0 0 1-.36.46L5.09 24a.33.33 0 0 0 .18-.27.53.53 0 0 0-.06-.23.42.42 0 0 0-.21-.19.24.24 0 0 0-.22 0 .23.23 0 0 0-.12.17 1.35 1.35 0 0 0 0 .26l.08.32a.74.74 0 0 1 0 .36.58.58 0 0 1-.31.37.67.67 0 0 1-.53.07.76.76 0 0 1-.45-.39.78.78 0 0 1-.1-.6.68.68 0 0 1 .37-.45zM6.33 25.36a.31.31 0 0 0-.08-.21L6 24.86l-.52.4.23.29a.3.3 0 0 0 .2.12.33.33 0 0 0 .24-.09.36.36 0 0 0 .18-.22zm-.45.73a.68.68 0 0 1-.42-.28l-.25-.31-.62.5-.24-.3 1.74-1.36.5.64a.6.6 0 0 1 .15.46.74.74 0 0 1-.32.46.75.75 0 0 1-.54.19zM6.91 27.79a1.1 1.1 0 0 0 .5-.32 1.06 1.06 0 0 0 .3-.51.42.42 0 0 0-.13-.4.43.43 0 0 0-.41-.12 1.1 1.1 0 0 0-.5.32 1.06 1.06 0 0 0-.3.51.45.45 0 0 0 .54.52zm-.06.41a.78.78 0 0 1-.62-.2.76.76 0 0 1-.23-.66 1.32 1.32 0 0 1 .42-.85 1.35 1.35 0 0 1 .81-.49.79.79 0 0 1 .63.25.77.77 0 0 1 .26.61 1.33 1.33 0 0 1-.43.85 1.37 1.37 0 0 1-.84.49zM8.84 27.73l-.35.48.36.26a.62.62 0 0 0 .19.09.27.27 0 0 0 .24-.13.28.28 0 0 0 .06-.29.4.4 0 0 0-.13-.14zm.88.23a.59.59 0 0 1 0 .23.76.76 0 0 1 0 .21.71.71 0 0 1-.11.21.77.77 0 0 1-.23.21.38.38 0 0 1-.31 0 .33.33 0 0 1 0 .25.72.72 0 0 1-.15.31l-.09.12a.65.65 0 0 0-.11.18.18.18 0 0 0 0 .14l-.35-.25a.58.58 0 0 1 0-.11.86.86 0 0 1 .1-.16l.11-.17a.46.46 0 0 0 .12-.27.35.35 0 0 0-.15-.19l-.33-.24-.51.7-.25-.13 1.3-1.78.74.54a.75.75 0 0 1 .22.24zM10.05 28.59l.18-.35 1.34.71-.18.35-.5-.26-.85 1.6-.35-.18.85-1.61zM11.7 30.49l.45.17.09-.89zm.52-1.27.41.16-.17 2.3-.4-.16v-.46l-.64-.25-.29.38-.33-.19zM13.17 30l.1-.38 1.47.36-.09.38-.55-.13-.44 1.76-.38-.09.44-1.77zM15.13 30.05l.39.06-.35 2.18-.38-.06zM17.15 31.92a1 1 0 0 0 .17-.56 1.11 1.11 0 0 0-.11-.59.44.44 0 0 0-.74 0 .93.93 0 0 0-.17.56 1 1 0 0 0 .11.58.44.44 0 0 0 .36.23.45.45 0 0 0 .38-.22zm.23.35a.86.86 0 0 1-1.23-.06 1.32 1.32 0 0 1-.24-.93 1.27 1.27 0 0 1 .33-.89.86.86 0 0 1 1.23.06 1.29 1.29 0 0 1 .24.93 1.31 1.31 0 0 1-.33.89zM18.11 30.26l.4-.05.91 1.46-.16-1.53.36-.04.23 2.2-.39.04-.92-1.48.16 1.56-.36.04zM21.69 30l.5 1.35.34-.12a.39.39 0 0 0 .25-.43 1.14 1.14 0 0 0-.09-.42 1.16 1.16 0 0 0-.26-.46.35.35 0 0 0-.4 0zm.57-.56a.6.6 0 0 1 .39.15 1.16 1.16 0 0 1 .25.29 2 2 0 0 1 .16.33 1.63 1.63 0 0 1 .11.76.66.66 0 0 1-.45.6l-.76.28-.75-2.08.76-.28a.8.8 0 0 1 .29-.09zM24.23 30.43l.91-.51.19.35-1.24.69-1.07-1.93 1.2-.67.19.34-.87.48.23.41.8-.44.18.34-.8.44zM25.65 27.91a.3.3 0 0 0-.21.07l-.3.22.39.52.3-.22a.31.31 0 0 0 .12-.19.35.35 0 0 0-.09-.25.35.35 0 0 0-.21-.15zm.72.46a.62.62 0 0 1-.29.41l-.32.24.48.64-.31.23-1.33-1.76.65-.49a.61.61 0 0 1 .47-.14.74.74 0 0 1 .45.32.77.77 0 0 1 .2.55zM27.24 27.75l.35-.33-.78-.42zm-.93-1 .32-.31 2 1.12-.31.3-.4-.24-.5.48.22.41-.29.29zM27.85 25.65l.47.37.27-.35a.41.41 0 0 0 .1-.18.28.28 0 0 0-.13-.25.27.27 0 0 0-.28-.07.37.37 0 0 0-.15.12zm.26-.86a.46.46 0 0 1 .23-.05.77.77 0 0 1 .42.15.82.82 0 0 1 .2.25.39.39 0 0 1 0 .3.37.37 0 0 1 .25 0 .74.74 0 0 1 .31.17l.28.21a.27.27 0 0 0 .15 0l-.27.34-.11-.05a.72.72 0 0 1-.15-.11l-.17-.12c-.11-.08-.2-.13-.26-.12s-.13 0-.2.14l-.25.32.68.53-.23.31-1.75-1.36.57-.73a.67.67 0 0 1 .3-.18zM28.75 24.48l-.34-.19.76-1.32.34.19-.28.49 1.57.91-.19.34-1.58-.91zM29.82 21.51 30 21l2 .86-.14.34-1.38-.58-.16-.08-.17-.07 1.57 1.05-.15.35-1.84-.4.16.07.17.07 1.37.59-.14.33-2-.86.22-.53 1.73.37zM31.98 20.61l.22-1.01.39.08-.31 1.39-2.15-.48.3-1.34.37.09-.21.96.46.1.2-.88.37.08-.2.89zM30.45 18.82l.05-.41 1.62-.55-1.53-.19.04-.37 2.2.27-.05.39-1.65.57 1.56.19-.05.36zM30.97 16.96h-.4l-.02-1.52h.39l.01.56 1.82-.03v.39l-1.82.03z"/></g><path class="cls-3" d="M29.05 9.77c.09-.84.19-1.8.19-1.8l.62 1.08"/><path class="cls-3" d="M29.26 9.1 31 8.74l-2 2.27.13-1.24"/><path class="cls-3" d="m29.86 9.05.91 1.57L28 9.37l1.29-.27M5.4 9.79C5.31 9 5.21 8 5.21 8l-.62 1.07"/><path class="cls-3" d="m5.19 9.12-1.71-.36L5.53 11 5.4 9.79"/><path class="cls-3" d="M4.59 9.07c-.43.73-.91 1.57-.91 1.57l2.79-1.25-1.28-.27"/></g><path fill="#ff8200" fill-rule="evenodd" stroke="#fff" stroke-miterlimit="10" stroke-width=".28" style="stroke:#fff;stroke-width:.28px;fill:#ff8200;fill-rule:evenodd;stroke-miterlimit:10" d="m10.02 14.34-.02.02-.78 2.14-.56.47-.29.66v.81l.8.57v.02l-.33.37v7.52l17 .01-.33-9.22h-.2l-.09-.07-.61-.88h-.02l-.4.22-.02.49-.09.05-2.01.04h-.02l-.3.36h-.02l-.94-.14-.2.19-.09.21-.58-.33-.18-.62-.4-.59-.33-.02-.41-.51.09-.19-.07-.22-.74-1.66-.7-.75-.73.82-.75-.31v-.87l.4-.34-.18-1.06.11-.2.25-1.51-.5.04-.4-.47-.74-.35-.06-.47-1.16-1.29-.83-.41-.11-.18.31-.29-.4-.91-.72-.94V1.04H9.12V9.9l-.13.77v.04l.4.78-.1.4.3.54.72.57.27.51-.02.15z"/><path fill="#ff8200" style="fill:#ff8200" d="M21.42 16.31h-7.28V12.1h7.28z"/><path class="cls-3" d="m15.4 23.34.69-.06.91-.18 1.1-.41 1-.5.86-.53.68-.57.64-.61.51-.64.47-.71.38-.71.3-.72s.18-.47.26-.78a5.41 5.41 0 0 0 .19-.77 5.69 5.69 0 0 0 .08-.83 5 5 0 0 0 0-.86 5.59 5.59 0 0 0-.16-.91 4.83 4.83 0 0 0-.22-.64 3.88 3.88 0 0 0-.22-.46 3.14 3.14 0 0 0-.42-.59 2.45 2.45 0 0 0-.59-.52 2.19 2.19 0 0 0-.65-.32 5 5 0 0 0-.51-.14h-6.23l-.82 2.46h7.43l-.41 1.51h-2.08L16.9 20.7h-1.6l1.7-5.83h-2.1l-1.69 5.81h-1.62l-.75 2.67h4.56z" fill="#003da5"/></svg>