<?xml version="1.0" encoding="UTF-8" standalone="no"?>
<svg
   xmlns:dc="http://purl.org/dc/elements/1.1/"
   xmlns:cc="http://creativecommons.org/ns#"
   xmlns:rdf="http://www.w3.org/1999/02/22-rdf-syntax-ns#"
   xmlns:svg="http://www.w3.org/2000/svg"
   xmlns="http://www.w3.org/2000/svg"
   viewBox="0 0 455.12 92.826668"
   height="92.826668"
   width="455.12"
   xml:space="preserve"
   version="1.1"
   id="svg2"><metadata
     id="metadata8"><rdf:RDF><cc:Work
         rdf:about=""><dc:format>image/svg+xml</dc:format><dc:type
           rdf:resource="http://purl.org/dc/dcmitype/StillImage" /></cc:Work></rdf:RDF></metadata><defs
     id="defs6" /><g
     transform="matrix(1.3333333,0,0,-1.3333333,0,92.826667)"
     id="g10"><g
       transform="scale(0.1)"
       id="g12"><path
         id="path14"
         style="fill:#46ae33;fill-opacity:1;fill-rule:nonzero;stroke:none"
         d="M 50.8594,118.457 61.1875,65.8398 76.8633,115.215 c 1.5273,4.414 2.8086,8.664 3.8672,13.086 l 41.5785,0 c -0.575,-9.727 -0.743,-16.309 -0.868,-20.11 l -1.949,-55.5855 c 0,-1.6289 -0.113,-3.668 -0.113,-6.0235 0,-4.1211 0.113,-9.414 0.433,-15.5859 l -28.8159,0 c 0.6016,4.1211 1.2109,9.707 1.4922,16.7695 l 1.7265,33.8047 c 0.1719,2.0625 0.3125,9.9727 0.7383,23.4957 L 73.7969,42.7656 c -1.1758,-3.3711 -2.5,-7.2187 -3.5235,-11.7695 l -23.9687,0 c -0.2891,2.7734 -0.8594,6.3281 -1.75,10.4219 L 31.168,104.465 27.1875,57.0039 C 26.6055,50.3906 26.1758,41.7461 25.7539,30.9961 L 0,30.9961 c 3.41797,22.0625 6.50781,54.5117 8.55078,97.3049 l 40.70702,0 c 0.4649,-3.223 1.0313,-6.621 1.6016,-9.844" /><path
         id="path16"
         style="fill:#46ae33;fill-opacity:1;fill-rule:nonzero;stroke:none"
         d="m 156.309,29.2383 c -15.454,0 -24.254,8.0859 -24.254,20.6953 0,14.1094 8.406,21.0625 26.718,25.1562 13.415,2.9297 20.332,3.8555 20.332,9.1211 0,3.3946 -2.664,4.7266 -8.695,4.7266 -8.082,0 -17.769,-1.9453 -27.633,-6.0469 l 3.239,21.2974 c 8.086,2.355 17.808,3.832 29.101,3.832 21.305,0 31.449,-6.028 31.449,-19.27 0,-0.5742 0,-3.2422 -0.257,-7.7656 l -1.782,-37.6446 c -0.136,-1.746 -0.136,-5.7109 -0.136,-12.3437 l -28.418,0 c 0.75,9.707 1.183,15.7031 1.355,18.2031 l 0.567,13.086 c -2.348,-0.8477 -4.985,-1.5821 -7.774,-2.3243 l -6.012,-1.4765 c -5.023,-1.1875 -7.937,-3.836 -7.937,-7.5078 0,-3.3711 2.601,-5.75 6.898,-5.75 1.93,0 4.996,0.4648 9.266,1.3554 l -4.422,-16.0234 c -4.238,-0.8906 -8.078,-1.3203 -11.605,-1.3203" /><path
         id="path18"
         style="fill:#46ae33;fill-opacity:1;fill-rule:nonzero;stroke:none"
         d="m 237.613,49.8438 c 5.129,0 7.797,1.5624 7.797,4.3671 0,2.5196 -3.691,4.7149 -9.976,8.9922 -11.329,7.461 -18.231,12.461 -18.231,23.3594 0,13.6645 10.41,21.1525 30.707,21.1525 8.969,0 16.91,-0.891 23.969,-2.766 l 1.75,-20.2928 c -6.168,1.711 -12.215,2.9493 -18.531,2.9493 -4.41,0 -6.758,-1.793 -6.758,-4.1289 0,-3.211 3.555,-4.8633 8.969,-8.3868 11.015,-7.1015 17.343,-12.9336 17.343,-23.2343 0,-15.125 -10.89,-22.9375 -31.91,-22.9375 -8.367,0 -17.168,1.0312 -25.855,3.4062 l -1.922,22.0508 c 9.582,-2.793 16.914,-4.5312 22.648,-4.5312" /><path
         id="path20"
         style="fill:#46ae33;fill-opacity:1;fill-rule:nonzero;stroke:none"
         d="m 302.895,49.8438 c 5.128,0 7.765,1.5624 7.765,4.3671 0,2.5196 -3.664,4.7149 -9.996,8.9922 -11.301,7.461 -18.18,12.461 -18.18,23.3594 0,13.6645 10.407,21.1525 30.704,21.1525 8.968,0 16.894,-0.891 23.941,-2.766 l 1.777,-20.2928 c -6.191,1.711 -12.211,2.9493 -18.523,2.9493 -4.414,0 -6.762,-1.793 -6.762,-4.1289 0,-3.211 3.559,-4.8633 8.996,-8.3868 10.988,-7.1015 17.324,-12.9336 17.324,-23.2343 0,-15.125 -10.875,-22.9375 -31.918,-22.9375 -8.339,0 -17.164,1.0312 -25.859,3.4062 l -1.883,22.0508 c 9.52,-2.793 16.875,-4.5312 22.614,-4.5312" /><path
         id="path22"
         style="fill:#46ae33;fill-opacity:1;fill-rule:nonzero;stroke:none"
         d="m 370.805,29.2383 c -15.446,0 -24.243,8.0859 -24.243,20.6953 0,14.1094 8.395,21.0625 26.778,25.1562 13.359,2.9297 20.265,3.8555 20.265,9.1211 0,3.3946 -2.644,4.7266 -8.648,4.7266 -8.133,0 -17.816,-1.9453 -27.648,-6.0469 l 3.214,21.2974 c 8.082,2.355 17.778,3.832 29.125,3.832 21.305,0 31.45,-6.028 31.45,-19.27 0,-0.5742 0,-3.2422 -0.305,-7.7656 l -1.762,-37.6446 c -0.144,-1.746 -0.144,-5.7109 -0.144,-12.3437 l -28.383,0 c 0.75,9.707 1.176,15.7031 1.32,18.2031 l 0.61,13.086 c -2.36,-0.8477 -4.996,-1.5821 -7.801,-2.3243 l -6.024,-1.4765 c -5.015,-1.1875 -7.91,-3.836 -7.91,-7.5078 0,-3.3711 2.641,-5.75 6.879,-5.75 1.891,0 5.016,0.4648 9.258,1.3554 l -4.414,-16.0234 c -4.274,-0.8906 -8.074,-1.3203 -11.617,-1.3203" /><path
         id="path24"
         style="fill:#46ae33;fill-opacity:1;fill-rule:nonzero;stroke:none"
         d="m 468.891,28.8008 c -23.399,0 -36.758,13.6601 -36.758,37.1758 0,26.1406 15.742,41.8824 41.89,41.8824 6.02,0 12.813,-1.035 20.297,-3.062 l 1.039,-21.9064 c -6.175,1.4649 -11.187,2.6172 -15.601,2.6172 -11.903,0 -18.211,-6.5625 -18.211,-18.6328 0,-9.8711 5.992,-15.293 16.465,-15.293 5.41,0 10.715,1.0235 15.843,2.4727 l -3.351,-22.6094 c -7.945,-1.7773 -15.16,-2.6445 -21.613,-2.6445" /><path
         id="path26"
         style="fill:#46ae33;fill-opacity:1;fill-rule:nonzero;stroke:none"
         d="m 509.312,128.301 28.985,0 c -1.031,-9.414 -1.774,-19.863 -2.227,-31.1604 5.578,7.1954 12.953,10.8794 24.571,10.8794 19.695,0 28.066,-7.344 28.066,-24.2427 0,-10.3085 -1.641,-27.9257 -2.215,-52.7812 l -28.211,0 c 1.469,18.6601 1.895,31.0078 1.895,36.6016 0,12.7851 -1.895,18.5078 -10.266,18.5078 -14.883,0 -16.476,-17.6367 -16.769,-55.1094 l -28.922,0 c 2.176,20.1367 3.922,52.4805 5.093,97.3049" /><path
         id="path28"
         style="fill:#46ae33;fill-opacity:1;fill-rule:nonzero;stroke:none"
         d="m 683.105,30.9961 -27.496,0 0,9.3945 c -6.91,-8.3594 -14.242,-11.5898 -25.277,-11.5898 -19.695,0 -28.074,7.3515 -28.074,24.2578 0,10.2617 1.605,27.9258 2.191,52.7534 l 28.266,0 c -1.524,-18.6831 -1.949,-30.8706 -1.949,-36.4643 0,-12.7774 1.949,-18.6563 10.285,-18.6563 14.847,0 16.461,17.6211 16.738,55.1206 l 28.969,0 c -2.477,-23.6558 -3.653,-48.6558 -3.653,-74.8159" /><path
         id="path30"
         style="fill:#46ae33;fill-opacity:1;fill-rule:nonzero;stroke:none"
         d="m 716.223,49.8438 c 5.101,0 7.765,1.5624 7.765,4.3671 0,2.5196 -3.695,4.7149 -10.004,8.9922 -11.316,7.461 -18.203,12.461 -18.203,23.3594 0,13.6645 10.446,21.1525 30.735,21.1525 8.922,0 16.859,-0.891 23.937,-2.766 l 1.754,-20.2928 c -6.168,1.711 -12.187,2.9493 -18.523,2.9493 -4.391,0 -6.735,-1.793 -6.735,-4.1289 0,-3.211 3.52,-4.8633 8.934,-8.3868 11.047,-7.1015 17.347,-12.9336 17.347,-23.2343 0,-15.125 -10.894,-22.9375 -31.906,-22.9375 -8.375,0 -17.176,1.0312 -25.828,3.4062 l -1.922,22.0508 c 9.551,-2.793 16.91,-4.5312 22.649,-4.5312" /><path
         id="path32"
         style="fill:#46ae33;fill-opacity:1;fill-rule:nonzero;stroke:none"
         d="m 811.324,77.8984 c 0,0.1211 0,0.4414 0,0.5586 0,8.1055 -2.961,12.3711 -8.386,12.3711 -5.731,0 -9.856,-4.5664 -10.883,-12.9297 l 19.269,0 z M 801.16,28.918 c -25.562,0 -39.383,12.9453 -39.383,36.1484 0,26.6211 15.594,42.7926 42.317,42.7926 22.648,0 33.828,-9.8317 33.828,-30.1559 0,-3.6601 -0.457,-8.4726 -1.32,-14.3828 l -44.664,0 c -0.168,-0.7226 -0.168,-1.4336 -0.168,-2.1992 0,-8.5156 6.019,-12.1836 18.343,-12.1836 6.657,0 13.41,0.9063 20.16,2.4687 l -3.066,-19.375 C 817.77,29.9492 809.117,28.918 801.16,28.918" /><path
         id="path34"
         style="fill:#46ae33;fill-opacity:1;fill-rule:nonzero;stroke:none"
         d="m 879.98,63.0195 c 0,-8.8086 1.637,-12.6289 8.829,-12.6289 1.468,0 3.675,0.4375 6.589,0.8594 l -1.746,-20.8516 c -5.015,-0.9961 -10.179,-1.4804 -15.59,-1.4804 -17.781,0 -26.152,7.8125 -26.152,23.6875 0,0.8789 0,1.6054 0,2.5312 l 1.61,31.4258 -10.723,0 0.891,19.2495 11.886,0 0.614,12.04 26.429,5.91 -1,-17.95 16.742,0 -1.031,-19.2495 -16.172,0 -1.023,-19.9922 c 0,-0.5937 -0.153,-1.7734 -0.153,-3.5508" /><path
         id="path36"
         style="fill:#46ae33;fill-opacity:1;fill-rule:nonzero;stroke:none"
         d="m 936.43,63.0195 c 0,-8.8086 1.605,-12.6289 8.836,-12.6289 1.457,0 3.672,0.4375 6.586,0.8594 l -1.747,-20.8516 c -4.988,-0.9961 -10.121,-1.4804 -15.562,-1.4804 -17.809,0 -26.18,7.8125 -26.18,23.6875 0,0.8789 0,1.6054 0,2.5312 l 1.614,31.4258 -10.731,0 0.891,19.2495 11.894,0 0.61,12.04 26.457,5.91 -1.063,-17.95 16.77,0 -0.993,-19.2495 -16.207,0 -1.003,-19.9922 c 0,-0.5937 -0.172,-1.7734 -0.172,-3.5508" /><path
         id="path38"
         style="fill:#46ae33;fill-opacity:1;fill-rule:nonzero;stroke:none"
         d="m 979.516,49.8438 c 5.136,0 7.804,1.5624 7.804,4.3671 0,2.5196 -3.668,4.7149 -10.008,8.9922 -11.296,7.461 -18.23,12.461 -18.23,23.3594 0,13.6645 10.461,21.1525 30.762,21.1525 8.945,0 16.876,-0.891 23.916,-2.766 l 1.8,-20.2928 c -6.19,1.711 -12.24,2.9493 -18.548,2.9493 -4.391,0 -6.77,-1.793 -6.77,-4.1289 0,-3.211 3.531,-4.8633 8.973,-8.3868 11.035,-7.1015 17.385,-12.9336 17.385,-23.2343 0,-15.125 -10.9,-22.9375 -31.948,-22.9375 -8.375,0 -17.195,1.0312 -25.859,3.4062 l -1.914,22.0508 c 9.562,-2.793 16.906,-4.5312 22.637,-4.5312" /><path
         id="path40"
         style="fill:#46ae33;fill-opacity:1;fill-rule:nonzero;stroke:none"
         d="m 1107.3,53.4844 c 9.26,0 16.31,0.3047 22.33,4.5625 6.91,4.8242 10.58,13.2226 10.58,24.2383 0,16.0351 -5.59,23.5268 -18.37,23.5268 l -15.75,0 -1.6,-35.2651 c -0.14,-2.5586 -0.29,-8.2617 -0.29,-17.0625 l 3.1,0 z m -30.45,74.8166 47.19,0 c 12.65,0 22.66,-0.156 31.02,-6.485 10.58,-7.968 16.32,-21.027 16.32,-38.1832 0,-33.9766 -19.27,-52.6367 -56.03,-52.6367 l -43.48,0 c 2.46,22.4883 4.41,54.9805 4.98,97.3049" /><path
         id="path42"
         style="fill:#46ae33;fill-opacity:1;fill-rule:nonzero;stroke:none"
         d="m 1230.63,77.8984 c 0,0.1211 0,0.4414 0,0.5586 0,8.1055 -2.94,12.3711 -8.37,12.3711 -5.73,0 -9.86,-4.5664 -10.86,-12.9297 l 19.23,0 z M 1220.48,28.918 c -25.56,0 -39.39,12.9453 -39.39,36.1484 0,26.6211 15.6,42.7926 42.35,42.7926 22.62,0 33.8,-9.8317 33.8,-30.1559 0,-3.6601 -0.46,-8.4726 -1.32,-14.3828 l -44.69,0 c -0.14,-0.7226 -0.14,-1.4336 -0.14,-2.1992 0,-8.5156 6.02,-12.1836 18.37,-12.1836 6.59,0 13.39,0.9063 20.13,2.4687 l -3.06,-19.375 c -9.42,-2.082 -18.1,-3.1132 -26.05,-3.1132" /><path
         id="path44"
         style="fill:#46ae33;fill-opacity:1;fill-rule:nonzero;stroke:none"
         d="m 1297.26,68.7695 c 0,-12.6367 3.68,-18.5351 12.51,-18.5351 8.63,0 13.64,6.7695 13.64,19.7148 0,12.207 -4.73,18.0586 -14.68,18.0586 -3.7,0 -7.07,-0.7226 -10.31,-2.1953 -0.72,-3.8086 -1.16,-9.5508 -1.16,-17.043 z m -26.17,34.0625 c 12.47,3.438 24.68,5.027 36.62,5.027 29.66,0 44.5,-12.4996 44.5,-37.7692 0,-24.9843 -14.1,-41.1718 -35.41,-41.1718 -8.53,0 -15.32,2.2265 -20.74,7.0781 l -0.71,-15.3047 C 1295.02,15.7031 1294.75,8.78906 1294.61,0 l -29.4,0 c 3.11,18.7891 4.84,53.0586 5.88,102.832" /><path
         id="path46"
         style="fill:#46ae33;fill-opacity:1;fill-rule:nonzero;stroke:none"
         d="m 1384.14,29.2383 c -15.43,0 -24.25,8.0859 -24.25,20.6953 0,14.1094 8.39,21.0625 26.76,25.1562 13.37,2.9297 20.28,3.8555 20.28,9.1211 0,3.3946 -2.63,4.7266 -8.67,4.7266 -8.07,0 -17.76,-1.9453 -27.63,-6.0469 l 3.24,21.2974 c 8.05,2.355 17.78,3.832 29.1,3.832 21.3,0 31.45,-6.028 31.45,-19.27 0,-0.5742 0,-3.2422 -0.28,-7.7656 l -1.78,-37.6446 c -0.14,-1.746 -0.14,-5.7109 -0.14,-12.3437 l -28.37,0 c 0.76,9.707 1.16,15.7031 1.32,18.2031 l 0.58,13.086 c -2.36,-0.8477 -4.99,-1.5821 -7.79,-2.3243 l -6.03,-1.4765 c -5,-1.1875 -7.93,-3.836 -7.93,-7.5078 0,-3.3711 2.65,-5.75 6.91,-5.75 1.92,0 5.01,0.4648 9.29,1.3554 l -4.42,-16.0234 c -4.27,-0.8906 -8.09,-1.3203 -11.64,-1.3203" /><path
         id="path48"
         style="fill:#46ae33;fill-opacity:1;fill-rule:nonzero;stroke:none"
         d="m 1496.64,84.7852 c -9.73,0 -15.74,-3.8008 -18.42,-11.3164 -2.49,-7.0313 -2.76,-21.0196 -3.22,-42.4727 l -28.94,0 c 2.36,22.332 3.52,44.8242 3.52,67.3242 0,2.4687 0,4.9917 0,7.4917 l 25.42,0 -0.6,-10.4526 c 5.18,8.6836 11.47,12.4996 20.88,12.4996 1.5,0 2.96,-0.144 4.59,-0.269 l 0.87,-22.9338 c -1.47,0.129 -2.78,0.129 -4.1,0.129" /><path
         id="path50"
         style="fill:#46ae33;fill-opacity:1;fill-rule:nonzero;stroke:none"
         d="m 1543.3,63.0195 c 0,-8.8086 1.58,-12.6289 8.78,-12.6289 1.49,0 3.67,0.4375 6.62,0.8594 l -1.78,-20.8516 c -4.99,-0.9961 -10.12,-1.4804 -15.55,-1.4804 -17.79,0 -26.16,7.8125 -26.16,23.6875 0,0.8789 0,1.6054 0,2.5312 l 1.6,31.4258 -10.73,0 0.91,19.2495 11.92,0 0.54,12.04 26.47,5.91 -1.04,-17.95 16.78,0 -1.03,-19.2495 -16.17,0 -1.03,-19.9922 c 0,-0.5937 -0.13,-1.7734 -0.13,-3.5508" /><path
         id="path52"
         style="fill:#46ae33;fill-opacity:1;fill-rule:nonzero;stroke:none"
         d="m 1570.63,105.812 27.47,0 0,-9.269 c 5.88,8.406 12.06,11.477 21.79,11.477 12.02,0 19.84,-4.282 22.79,-12.7856 5.73,9.2306 12.01,12.7856 22.15,12.7856 17.06,0 24.3,-7.5 24.3,-24.2427 0,-10.7695 -1.5,-28.25 -1.97,-52.7812 l -28.06,0 c 1.34,12.793 1.78,25.2539 1.78,36.6016 0,12.6679 -1.18,18.5078 -7.65,18.5078 -10.45,0 -12.62,-16.7578 -12.62,-51.5938 0,-1.1601 0,-2.3555 0,-3.5156 l -27.07,0 c 1.17,12.9101 1.77,25.1367 1.77,36.6016 0,12.6679 -1.15,18.5078 -7.64,18.5078 -10.43,0 -12.61,-16.7578 -12.61,-51.5938 0,-1.1601 0,-2.3555 0,-3.5156 l -28.07,0 c 2.46,23.6523 3.64,48.5078 3.64,74.8159" /><path
         id="path54"
         style="fill:#46ae33;fill-opacity:1;fill-rule:nonzero;stroke:none"
         d="m 1750.13,77.8984 c 0,0.1211 0,0.4414 0,0.5586 0,8.1055 -2.93,12.3711 -8.36,12.3711 -5.74,0 -9.86,-4.5664 -10.88,-12.9297 l 19.24,0 z M 1740,28.918 c -25.56,0 -39.39,12.9453 -39.39,36.1484 0,26.6211 15.56,42.7926 42.31,42.7926 22.66,0 33.82,-9.8317 33.82,-30.1559 0,-3.6601 -0.44,-8.4726 -1.32,-14.3828 l -44.71,0 c -0.11,-0.7226 -0.11,-1.4336 -0.11,-2.1992 0,-8.5156 5.98,-12.1836 18.36,-12.1836 6.61,0 13.37,0.9063 20.15,2.4687 l -3.1,-19.375 c -9.41,-2.082 -18.1,-3.1132 -26.01,-3.1132" /><path
         id="path56"
         style="fill:#46ae33;fill-opacity:1;fill-rule:nonzero;stroke:none"
         d="m 1789.68,105.812 27.51,0 0,-9.269 c 6.15,7.645 13.34,11.477 25.29,11.477 19.7,0 28.07,-7.344 28.07,-24.2427 0,-10.3085 -1.62,-27.9257 -2.22,-52.7812 l -28.21,0 c 1.46,18.6601 1.92,31.0078 1.92,36.6016 0,12.7851 -1.92,18.5078 -10.28,18.5078 -14.88,0 -16.47,-17.6367 -16.79,-55.1094 l -28.93,0 c 2.47,23.6523 3.64,48.5078 3.64,74.8159" /><path
         id="path58"
         style="fill:#46ae33;fill-opacity:1;fill-rule:nonzero;stroke:none"
         d="m 1915.11,63.0195 c 0,-8.8086 1.62,-12.6289 8.84,-12.6289 1.47,0 3.67,0.4375 6.6,0.8594 l -1.76,-20.8516 c -4.99,-0.9961 -10.15,-1.4804 -15.6,-1.4804 -17.78,0 -26.15,7.8125 -26.15,23.6875 0,0.8789 0,1.6054 0,2.5312 l 1.64,31.4258 -10.74,0 0.88,19.2495 11.9,0 0.58,12.04 26.49,5.91 -1.06,-17.95 16.76,0 -1.02,-19.2495 -16.18,0 -1.02,-19.9922 c 0,-0.5937 -0.16,-1.7734 -0.16,-3.5508" /><path
         id="path60"
         style="fill:#46ae33;fill-opacity:1;fill-rule:nonzero;stroke:none"
         d="m 2013.17,67.2969 c 0,-12.1602 3.98,-18.0977 12.65,-18.0977 8.83,0 13.53,6.6524 13.53,19.4219 0,13.2344 -3.39,19.2695 -12.66,19.2695 -9.1,0 -13.52,-6.9062 -13.52,-20.5937 z m 14.56,40.5621 c 26.03,0 40.6,-13.6598 40.6,-37.7692 0,-25.7421 -16.48,-41.1718 -43.27,-41.1718 -26.29,0 -40.85,13.6875 -40.85,37.957 0,25.2422 16.34,40.984 43.52,40.984" /><path
         id="path62"
         style="fill:#46ae33;fill-opacity:1;fill-rule:nonzero;stroke:none"
         d="m 2074.2,85.5078 1.17,20.3042 10.16,0 c 0.44,17.95 8.83,24.54 29.1,24.54 6,0 12.04,-0.762 17.92,-1.914 l 0.9,-15.418 c -4.58,1.168 -8.09,1.597 -10.59,1.597 -6.45,0 -10.43,-3.238 -10.73,-8.805 l 18.09,0 -1.03,-20.3042 -16.02,0 c -1.04,-19.2383 -1.31,-37.4726 -1.45,-54.5117 l -30.18,0 c 1.93,23.2148 2.96,40.6914 2.96,52.3164 0,0.7187 0,1.4727 0,2.1953 l -10.3,0" /><path
         id="path64"
         style="fill:#46ae33;fill-opacity:1;fill-rule:nonzero;stroke:none"
         d="m 2260.47,105.812 c -8.25,0.887 -16.14,1.336 -24.11,1.336 -1.17,0 -2.22,0 -3.37,0 l -2.65,-44.4332 c -0.29,-5.8593 -0.44,-11.8867 -0.44,-18.2109 0,-4.3984 0,-8.957 0.15,-13.5078 l -31.45,0 c 1.74,15.1484 3.38,40.5977 4.56,76.1519 -12.07,-0.156 -21.62,-0.605 -28.5,-1.336 l 1.11,22.489 85.88,0 -1.18,-22.489" /><path
         id="path66"
         style="fill:#46ae33;fill-opacity:1;fill-rule:nonzero;stroke:none"
         d="m 2311.53,84.7852 c -9.68,0 -15.74,-3.8008 -18.34,-11.3164 -2.54,-7.0313 -2.86,-21.0196 -3.25,-42.4727 l -29.01,0 c 2.35,22.332 3.58,44.8242 3.58,67.3242 0,2.4687 0,4.9917 0,7.4917 l 25.43,0 -0.62,-10.4526 c 5.14,8.6836 11.46,12.4996 20.89,12.4996 1.46,0 2.92,-0.144 4.55,-0.269 l 0.87,-22.9338 c -1.42,0.129 -2.78,0.129 -4.1,0.129" /><path
         id="path68"
         style="fill:#46ae33;fill-opacity:1;fill-rule:nonzero;stroke:none"
         d="m 2344.76,29.2383 c -15.43,0 -24.26,8.0859 -24.26,20.6953 0,14.1094 8.37,21.0625 26.75,25.1562 13.4,2.9297 20.29,3.8555 20.29,9.1211 0,3.3946 -2.66,4.7266 -8.67,4.7266 -8.09,0 -17.82,-1.9453 -27.65,-6.0469 l 3.24,21.2974 c 8.1,2.355 17.8,3.832 29.13,3.832 21.31,0 31.42,-6.028 31.42,-19.27 0,-0.5742 0,-3.2422 -0.29,-7.7656 l -1.75,-37.6446 c -0.15,-1.746 -0.15,-5.7109 -0.15,-12.3437 l -28.38,0 c 0.72,9.707 1.18,15.7031 1.32,18.2031 l 0.58,13.086 c -2.32,-0.8477 -4.96,-1.5821 -7.73,-2.3243 l -6.05,-1.4765 c -5,-1.1875 -7.95,-3.836 -7.95,-7.5078 0,-3.3711 2.64,-5.75 6.91,-5.75 1.9,0 4.99,0.4648 9.27,1.3554 l -4.45,-16.0234 c -4.24,-0.8906 -8.06,-1.3203 -11.58,-1.3203" /><path
         id="path70"
         style="fill:#46ae33;fill-opacity:1;fill-rule:nonzero;stroke:none"
         d="m 2410.34,105.812 27.51,0 0,-9.269 c 6.13,7.645 13.32,11.477 25.25,11.477 19.7,0 28.07,-7.344 28.07,-24.2427 0,-10.3085 -1.59,-27.9257 -2.2,-52.7812 l -28.23,0 c 1.51,18.6601 1.95,31.0078 1.95,36.6016 0,12.7851 -1.95,18.5078 -10.31,18.5078 -14.84,0 -16.49,-17.6367 -16.75,-55.1094 l -28.93,0 c 2.46,23.6523 3.64,48.5078 3.64,74.8159" /><path
         id="path72"
         style="fill:#46ae33;fill-opacity:1;fill-rule:nonzero;stroke:none"
         d="m 2522.36,49.8438 c 5.17,0 7.83,1.5624 7.83,4.3671 0,2.5196 -3.71,4.7149 -9.99,8.9922 -11.36,7.461 -18.25,12.461 -18.25,23.3594 0,13.6645 10.42,21.1525 30.71,21.1525 8.96,0 16.91,-0.891 23.97,-2.766 l 1.74,-20.2928 c -6.15,1.711 -12.18,2.9493 -18.49,2.9493 -4.4,0 -6.8,-1.793 -6.8,-4.1289 0,-3.211 3.55,-4.8633 9,-8.3868 11.02,-7.1015 17.35,-12.9336 17.35,-23.2343 0,-15.125 -10.89,-22.9375 -31.9,-22.9375 -8.42,0 -17.21,1.0312 -25.89,3.4062 l -1.9,22.0508 c 9.55,-2.793 16.9,-4.5312 22.62,-4.5312" /><path
         id="path74"
         style="fill:#46ae33;fill-opacity:1;fill-rule:nonzero;stroke:none"
         d="m 2598.99,68.7695 c 0,-12.6367 3.64,-18.5351 12.47,-18.5351 8.68,0 13.65,6.7695 13.65,19.7148 0,12.207 -4.7,18.0586 -14.66,18.0586 -3.66,0 -7.06,-0.7226 -10.31,-2.1953 -0.74,-3.8086 -1.15,-9.5508 -1.15,-17.043 z m -26.2,34.0625 c 12.5,3.438 24.71,5.027 36.61,5.027 29.67,0 44.55,-12.4996 44.55,-37.7692 0,-24.9843 -14.13,-41.1718 -35.43,-41.1718 -8.53,0 -15.29,2.2265 -20.72,7.0781 l -0.75,-15.3047 C 2596.79,15.7031 2596.48,8.78906 2596.33,0 l -29.4,0 c 3.08,18.7891 4.82,53.0586 5.86,102.832" /><path
         id="path76"
         style="fill:#46ae33;fill-opacity:1;fill-rule:nonzero;stroke:none"
         d="m 2692.16,67.2969 c 0,-12.1602 4,-18.0977 12.64,-18.0977 8.84,0 13.55,6.6524 13.55,19.4219 0,13.2344 -3.4,19.2695 -12.65,19.2695 -9.12,0 -13.54,-6.9062 -13.54,-20.5937 z m 14.57,40.5621 c 26.04,0 40.6,-13.6598 40.6,-37.7692 0,-25.7421 -16.49,-41.1718 -43.26,-41.1718 -26.29,0 -40.86,13.6875 -40.86,37.957 0,25.2422 16.35,40.984 43.52,40.984" /><path
         id="path78"
         style="fill:#46ae33;fill-opacity:1;fill-rule:nonzero;stroke:none"
         d="m 2807.3,84.7852 c -9.68,0 -15.74,-3.8008 -18.37,-11.3164 -2.5,-7.0313 -2.78,-21.0196 -3.24,-42.4727 l -28.96,0 c 2.36,22.332 3.53,44.8242 3.53,67.3242 0,2.4687 0,4.9917 0,7.4917 l 25.43,0 -0.58,-10.4526 c 5.13,8.6836 11.46,12.4996 20.85,12.4996 1.48,0 2.97,-0.144 4.58,-0.269 l 0.86,-22.9338 c -1.47,0.129 -2.77,0.129 -4.1,0.129" /><path
         id="path80"
         style="fill:#46ae33;fill-opacity:1;fill-rule:nonzero;stroke:none"
         d="m 2853.98,63.0195 c 0,-8.8086 1.59,-12.6289 8.8,-12.6289 1.48,0 3.68,0.4375 6.63,0.8594 l -1.76,-20.8516 c -5.01,-0.9961 -10.15,-1.4804 -15.58,-1.4804 -17.81,0 -26.18,7.8125 -26.18,23.6875 0,0.8789 0,1.6054 0,2.5312 l 1.63,31.4258 -10.74,0 0.87,19.2495 11.92,0 0.6,12.04 26.45,5.91 -1.05,-17.95 16.75,0 -0.98,-19.2495 -16.22,0 -1.03,-19.9922 c 0,-0.5937 -0.11,-1.7734 -0.11,-3.5508" /><path
         id="path82"
         style="fill:#46ae33;fill-opacity:1;fill-rule:nonzero;stroke:none"
         d="m 2899.72,29.2383 c -15.43,0 -24.25,8.0859 -24.25,20.6953 0,14.1094 8.36,21.0625 26.71,25.1562 13.4,2.9297 20.29,3.8555 20.29,9.1211 0,3.3946 -2.66,4.7266 -8.67,4.7266 -8.07,0 -17.78,-1.9453 -27.66,-6.0469 l 3.24,21.2974 c 8.1,2.355 17.81,3.832 29.13,3.832 21.32,0 31.46,-6.028 31.46,-19.27 0,-0.5742 0,-3.2422 -0.32,-7.7656 l -1.75,-37.6446 c -0.16,-1.746 -0.16,-5.7109 -0.16,-12.3437 l -28.37,0 c 0.76,9.707 1.18,15.7031 1.32,18.2031 l 0.61,13.086 c -2.34,-0.8477 -4.99,-1.5821 -7.8,-2.3243 l -6.06,-1.4765 c -4.98,-1.1875 -7.91,-3.836 -7.91,-7.5078 0,-3.3711 2.65,-5.75 6.93,-5.75 1.89,0 4.98,0.4648 9.27,1.3554 l -4.41,-16.0234 c -4.28,-0.8906 -8.09,-1.3203 -11.6,-1.3203" /><path
         id="path84"
         style="fill:#46ae33;fill-opacity:1;fill-rule:nonzero;stroke:none"
         d="m 2994.38,63.0195 c 0,-8.8086 1.63,-12.6289 8.8,-12.6289 1.49,0 3.67,0.4375 6.62,0.8594 l -1.73,-20.8516 c -5.04,-0.9961 -10.18,-1.4804 -15.62,-1.4804 -17.76,0 -26.13,7.8125 -26.13,23.6875 0,0.8789 0,1.6054 0,2.5312 l 1.59,31.4258 -10.74,0 0.92,19.2495 11.9,0 0.55,12.04 26.48,5.91 -1.01,-17.95 16.76,0 -1.06,-19.2495 -16.15,0 -1,-19.9922 c 0,-0.5937 -0.18,-1.7734 -0.18,-3.5508" /><path
         id="path86"
         style="fill:#46ae33;fill-opacity:1;fill-rule:nonzero;stroke:none"
         d="m 3023.35,128.301 29.11,0 -0.9,-17.196 -29.1,0 0.89,17.196 z m 24.54,-97.3049 -29.83,0 c 2.49,23.0586 3.67,47.6172 3.67,73.6519 l 29.83,0 c -2.79,-23.9644 -3.67,-48.5152 -3.67,-73.6519" /><path
         id="path88"
         style="fill:#46ae33;fill-opacity:1;fill-rule:nonzero;stroke:none"
         d="m 3089.96,67.2969 c 0,-12.1602 3.95,-18.0977 12.61,-18.0977 8.82,0 13.54,6.6524 13.54,19.4219 0,13.2344 -3.38,19.2695 -12.64,19.2695 -9.11,0 -13.51,-6.9062 -13.51,-20.5937 z m 14.54,40.5621 c 26.03,0 40.56,-13.6598 40.56,-37.7692 0,-25.7421 -16.45,-41.1718 -43.18,-41.1718 -26.34,0 -40.87,13.6875 -40.87,37.957 0,25.2422 16.3,40.984 43.49,40.984" /><path
         id="path90"
         style="fill:#46ae33;fill-opacity:1;fill-rule:nonzero;stroke:none"
         d="m 3158.15,105.812 27.51,0 0,-9.269 c 6.15,7.645 13.39,11.477 25.29,11.477 19.7,0 28.07,-7.344 28.07,-24.2427 0,-10.3085 -1.63,-27.9257 -2.22,-52.7812 l -28.2,0 c 1.45,18.6601 1.9,31.0078 1.9,36.6016 0,12.7851 -1.9,18.5078 -10.3,18.5078 -14.84,0 -16.43,-17.6367 -16.75,-55.1094 l -28.95,0 c 2.52,23.6523 3.65,48.5078 3.65,74.8159" /><path
         id="path92"
         style="fill:#46ae33;fill-opacity:1;fill-rule:nonzero;stroke:none"
         d="m 24.8281,198.723 c 16.3086,39.746 39.3321,99.07 68.9258,178.117 29.6131,79.023 50.9961,138.496 64.1951,178.457 19.692,-0.453 35.711,-0.695 48.102,-0.695 14.254,0 29.765,0.242 46.566,0.695 l -21.305,-56.445 c 11.126,10.996 20.872,19.921 29.317,26.847 8.469,6.879 18.582,13.239 30.309,19.113 11.753,5.813 24.8,10.418 39.078,13.817 14.304,3.383 28.496,5.101 42.55,5.101 10.485,0 20.36,-1.015 29.496,-2.984 9.145,-2 17.149,-4.785 24.055,-8.422 6.863,-3.609 12.391,-7.793 16.574,-12.445 4.184,-4.676 7.332,-9.844 9.426,-15.578 2.071,-5.75 3.621,-14.239 4.586,-25.449 7.863,8.164 14.82,15.039 20.934,20.511 6.133,5.477 13.812,11.157 22.968,17.02 9.145,5.836 18.864,10.742 29.043,14.691 10.176,3.985 21.18,7.114 33.02,9.332 11.844,2.211 23.711,3.324 35.633,3.324 20.304,0 38.394,-3.324 54.187,-10.003 15.797,-6.657 26.528,-17.172 32.059,-31.582 5.555,-14.34 4.844,-32.184 -2.184,-53.469 -3.668,-11.18 -9.922,-27.68 -18.691,-49.406 -8.777,-21.731 -22.422,-57.231 -40.906,-106.418 -18.504,-49.239 -32.282,-87.254 -41.344,-114.129 -16.949,0.449 -31.973,0.711 -45.074,0.711 -15.453,0 -33.711,-0.262 -54.676,-0.711 12.051,30.117 24.437,61.675 37.137,94.675 l 30.671,80.278 c 7.856,20.347 14.075,37.484 18.719,51.554 5.485,16.684 7.031,29.313 4.559,37.879 -2.461,8.594 -7.078,14.719 -13.957,18.356 -6.883,3.617 -15.317,5.453 -25.367,5.453 -10.5,0 -20.739,-1.973 -30.567,-5.965 -9.871,-3.976 -19.953,-10.484 -30.25,-19.355 -10.258,-8.938 -19.375,-19.348 -27.262,-31.192 -7.855,-11.886 -16.23,-28.515 -25.144,-49.879 -8.859,-21.402 -19.606,-49.519 -32.223,-84.328 l -34.492,-97.476 c -19.293,0.449 -35.371,0.711 -48.254,0.711 -12.871,0 -30.125,-0.262 -51.828,-0.711 7.566,17.965 22.024,54.8 43.371,110.437 21.305,55.625 35.153,93.149 41.543,112.555 3.391,10.301 5.422,18.992 6.141,26.133 0.711,7.129 -0.407,13.886 -3.309,20.312 -2.879,6.418 -7.25,11.188 -13.008,14.211 -5.765,3.043 -13.129,4.547 -21.984,4.547 -16.367,0 -32.492,-5.371 -48.398,-16.098 -15.95,-10.769 -29.696,-25.14 -41.344,-43.121 -11.66,-18.027 -27.285,-53.027 -46.985,-105.054 -19.64,-51.993 -34.515,-93.336 -44.582,-123.922 -21.339,0.449 -37.441,0.711 -48.3942,0.711 -12.3828,0 -29.5781,-0.262 -51.6367,-0.711" /><path
         id="path94"
         style="fill:#46ae33;fill-opacity:1;fill-rule:nonzero;stroke:none"
         d="m 784.371,477.109 c 8.805,16.829 14.738,28.618 17.809,35.43 3.031,6.785 7.875,17.039 14.496,30.844 34.262,7.492 64.051,12.746 89.363,15.793 25.316,3.012 49.289,4.554 71.992,4.554 25.689,0 48.349,-2.984 67.889,-8.925 19.5,-5.996 33.2,-15.512 41.09,-28.621 7.81,-13.082 7.68,-31.887 -0.38,-56.426 -4.39,-13.328 -17.4,-47.285 -39.1,-101.871 -21.65,-54.586 -42.43,-110.961 -62.28,-169.164 -17.621,0.449 -33.938,0.711 -48.879,0.711 -14.269,0 -31.074,-0.262 -50.402,-0.711 12.39,28.269 25.633,61.004 39.746,98.191 l 33.34,87.289 c -10.809,-5.836 -18.934,-9.926 -24.371,-12.265 -5.469,-2.368 -11.442,-4.512 -17.973,-6.508 -6.457,-1.989 -17.77,-5.008 -33.863,-9.102 -16.086,-4.105 -29.094,-7.644 -38.965,-10.683 -9.883,-3.086 -19.035,-6.497 -27.438,-10.372 -8.398,-3.828 -15.879,-8.195 -22.363,-12.968 -6.469,-4.785 -11.66,-9.825 -15.648,-15.086 -3.957,-5.227 -6.911,-10.891 -8.938,-16.992 -3.246,-9.805 -3.156,-18.286 0.25,-25.422 3.356,-7.117 8.914,-12.117 16.656,-14.895 7.715,-2.82 17.403,-4.219 29.102,-4.219 7.484,0 15.594,0.586 24.254,1.77 8.687,1.152 20.812,4.094 36.355,8.769 -9.258,-13.339 -21.562,-33.21 -36.789,-59.621 -17.512,-2.808 -31.277,-4.519 -41.363,-5.293 -10.035,-0.625 -19.238,-1.035 -27.668,-1.035 -29.473,0 -52.348,4.004 -68.668,11.926 -16.309,7.949 -26.145,20.598 -29.441,37.883 -3.301,17.293 -2.055,34.707 3.707,52.222 3.293,10.071 8.308,20.024 15.066,29.817 6.715,9.824 14.855,18.809 24.32,27.008 9.457,8.172 20.836,16.082 34.094,23.668 13.242,7.566 31.238,14.976 53.926,22.093 22.672,7.122 51.973,14.29 87.812,21.571 9.481,1.871 19.493,4.117 29.93,6.836 10.488,2.695 19.004,5.285 25.602,7.902 6.558,2.563 12.64,5.855 18.171,9.938 5.54,4.113 10.09,8.39 13.508,12.82 3.496,4.441 5.961,8.988 7.543,13.691 2.977,9.121 2.489,16.821 -1.383,23.114 -3.894,6.324 -10.148,10.734 -18.8,13.175 -8.692,2.442 -18.75,3.668 -30.196,3.668 -42.574,0 -92.968,-10.164 -151.113,-30.504" /><path
         id="path96"
         style="fill:#46ae33;fill-opacity:1;fill-rule:nonzero;stroke:none"
         d="m 1065.59,205.371 17.65,77.141 c 19.82,-9.367 37.08,-15.832 51.78,-19.453 14.71,-3.625 28.73,-5.454 42.06,-5.454 13.33,0 25.06,1.594 35.21,4.758 10.17,3.157 18.5,7.825 24.97,14.016 6.48,6.172 10.83,12.664 13.04,19.488 1,3.028 1.64,5.832 1.93,8.363 0.26,2.594 0.06,5.262 -0.55,8.106 -0.57,2.793 -1.46,5.437 -2.64,7.867 -1.2,2.442 -2.98,5.285 -5.48,8.41 -2.49,3.172 -6.15,7.215 -11.09,12.129 l -13.96,15.047 c -13.53,14.277 -23.74,25.5 -30.65,33.668 -6.91,8.199 -12.21,16.539 -15.94,25.078 -3.72,8.512 -5.76,17.531 -6.05,26.996 -0.26,9.453 1.21,19.137 4.48,28.907 5.59,17.085 16.14,33.316 31.62,48.761 15.45,15.426 34.31,26.699 56.53,33.828 22.22,7.09 46.77,10.703 73.66,10.703 30.62,0 64.7,-3.648 102.32,-10.894 l -19.58,-73.258 c -23.51,10.988 -47.74,16.442 -72.73,16.442 -13.61,0 -25.89,-1.313 -36.94,-3.993 -11.06,-2.707 -19.72,-6.777 -25.97,-12.285 -6.25,-5.504 -10.48,-11.629 -12.73,-18.414 -1.29,-3.961 -1.86,-7.91 -1.72,-11.754 0.11,-3.844 1.23,-7.871 3.35,-12.094 2.14,-4.21 4.85,-8.16 8.17,-11.921 3.33,-3.727 10.45,-11.102 21.27,-22.098 10.93,-10.981 20.34,-20.879 28.31,-29.785 7.91,-8.891 13.92,-17.817 18,-26.824 4.05,-9.02 6.25,-18.661 6.59,-28.922 0.36,-10.266 -1.2,-20.696 -4.68,-31.2 -5.75,-17.542 -16.47,-33.769 -32.14,-48.742 -15.7,-14.968 -35.77,-26.609 -60.28,-35.058 -24.52,-8.41 -50.2,-12.649 -77.09,-12.649 -14,0 -30.7,1.125 -50.08,3.332 -19.39,2.227 -39.6,6.16 -60.64,11.758" /><path
         id="path98"
         style="fill:#46ae33;fill-opacity:1;fill-rule:nonzero;stroke:none"
         d="m 1380.44,205.371 17.68,77.141 c 19.82,-9.367 37.08,-15.832 51.82,-19.453 14.66,-3.625 28.68,-5.454 41.98,-5.454 13.37,0 25.08,1.594 35.24,4.758 10.15,3.157 18.46,7.825 24.95,14.016 6.51,6.172 10.87,12.664 13.1,19.488 1.01,3.028 1.63,5.832 1.88,8.363 0.3,2.594 0.06,5.262 -0.52,8.106 -0.59,2.793 -1.47,5.437 -2.65,7.867 -1.19,2.442 -3.02,5.285 -5.47,8.41 -2.44,3.172 -6.18,7.215 -11.12,12.129 l -13.93,15.047 c -13.57,14.277 -23.78,25.5 -30.63,33.668 -6.95,8.199 -12.24,16.539 -16,25.078 -3.75,8.512 -5.73,17.531 -6.03,26.996 -0.24,9.453 1.22,19.137 4.47,28.907 5.6,17.085 16.14,33.316 31.6,48.761 15.51,15.426 34.34,26.699 56.57,33.828 22.22,7.09 46.75,10.703 73.68,10.703 30.6,0 64.7,-3.648 102.28,-10.894 l -19.56,-73.258 c -23.5,10.988 -47.75,16.442 -72.78,16.442 -13.56,0 -25.85,-1.313 -36.89,-3.993 -11.07,-2.707 -19.69,-6.777 -25.95,-12.285 -6.25,-5.504 -10.52,-11.629 -12.72,-18.414 -1.32,-3.961 -1.9,-7.91 -1.76,-11.754 0.16,-3.844 1.24,-7.871 3.39,-12.094 2.12,-4.21 4.84,-8.16 8.18,-11.921 3.31,-3.727 10.4,-11.102 21.26,-22.098 10.9,-10.981 20.3,-20.879 28.27,-29.785 7.93,-8.891 13.93,-17.817 17.98,-26.824 4.1,-9.02 6.25,-18.661 6.66,-28.922 0.3,-10.266 -1.23,-20.696 -4.68,-31.2 -5.83,-17.542 -16.52,-33.769 -32.2,-48.742 -15.68,-14.968 -35.76,-26.609 -60.27,-35.058 -24.51,-8.41 -50.19,-12.649 -77.08,-12.649 -14.03,0 -30.71,1.125 -50.13,3.332 -19.35,2.227 -39.58,6.16 -60.62,11.758" /><path
         id="path100"
         style="fill:#2d7bc8;fill-opacity:1;fill-rule:nonzero;stroke:none"
         d="m 1852.3,275.012 c 19.26,-0.95 38.42,-1.426 57.58,-1.426 21.73,0 42.18,1.043 61.42,3.199 19.2,2.16 36.26,5.539 51.18,10.227 14.86,4.668 31,12.824 48.36,24.519 17.32,11.692 32.86,25.246 46.48,40.614 13.65,15.437 25.89,32.566 36.62,51.449 10.77,18.824 19.37,38.031 25.77,57.633 11.78,35.816 15.4,65.234 10.81,88.269 -4.59,23.055 -15.17,39.676 -31.8,49.801 -16.61,10.133 -45.69,15.211 -87.23,15.211 -26.96,0 -58.04,-0.481 -93.22,-1.406 L 1852.3,275.012 Z m -135.01,-76.289 50.7,124.644 58.39,155.774 55.63,155.058 c 2.5,6.699 8.43,24.469 17.92,53.371 26.35,-0.48 51.2,-0.711 74.65,-0.711 17.4,0 40.49,0.329 69.29,1.075 28.8,0.703 53.56,1.066 74.31,1.066 28.21,0 53.74,-1.68 76.62,-5 22.91,-3.352 41.82,-9.605 56.66,-18.824 14.93,-9.192 26.66,-20.719 35.22,-34.555 8.56,-13.851 14.3,-29.211 17.12,-46.016 2.8,-16.824 3.04,-35.585 0.65,-56.21 -2.39,-20.665 -7.11,-41.731 -14.2,-63.204 -13.5,-41.086 -33.47,-80.175 -59.89,-117.281 -26.41,-37.168 -57.7,-67.82 -93.88,-92.07 -36.1,-24.238 -72.45,-39.824 -109,-46.738 -36.56,-6.934 -76.53,-10.379 -119.98,-10.379 l -121.57,0.711 c -7.61,0 -30.46,-0.262 -68.64,-0.711" /><path
         id="path102"
         style="fill:#2d7bc8;fill-opacity:1;fill-rule:nonzero;stroke:none"
         d="m 2681.41,619.914 c -36.05,0 -70.21,-8.328 -102.4,-24.918 -32.16,-16.601 -59.77,-39.277 -82.7,-68.047 -22.97,-28.769 -39.98,-59.883 -50.94,-93.289 -10.25,-31.047 -13.15,-59.64 -8.73,-85.75 4.45,-26.164 17.83,-46.101 40.3,-59.836 22.45,-13.738 49.35,-20.586 80.64,-20.586 23.62,0 47.54,4.055 71.71,12.168 24.12,8.11 46.77,20.481 67.86,37.032 21.08,16.613 39.44,36.632 55,60.035 15.56,23.39 27.53,47.718 35.86,73.035 7.77,23.633 11.73,46.355 11.86,68.051 0.06,21.722 -4.7,40.418 -14.39,56.058 -9.65,15.629 -23.65,27.219 -42.08,34.731 -18.43,7.531 -39.06,11.316 -61.99,11.316 z m 30.81,76.254 c 35.6,0 68.11,-4.914 97.59,-14.688 29.49,-9.789 53.28,-25.707 71.29,-47.828 18.03,-22.066 28.69,-47.793 31.92,-77.175 3.25,-29.36 -1.58,-63.602 -14.48,-102.793 -12.1,-36.77 -29.77,-71.903 -52.96,-105.438 -23.25,-33.512 -51.59,-62.445 -85.1,-86.691 -33.54,-24.243 -70.55,-42.207 -111.02,-53.867 -40.52,-11.719 -80.96,-17.559 -121.28,-17.559 -38.21,0 -73.17,5.391 -104.85,16.094 -31.68,10.75 -56.45,27.617 -74.37,50.507 -17.86,22.926 -27.41,49.247 -28.61,78.985 -1.19,29.715 3.9,61.879 15.32,96.519 12.46,37.954 31.26,74.211 56.4,108.84 25.12,34.653 54.72,63.266 88.81,85.992 34.09,22.657 70.89,39.848 110.43,51.543 39.57,11.707 79.84,17.559 120.91,17.559" /><path
         id="path104"
         style="fill:#2d7bc8;fill-opacity:1;fill-rule:nonzero;stroke:none"
         d="m 2968.55,198.723 42.25,104.589 59.14,155.766 55.41,153.27 -25.01,0 -23.36,-0.356 -22.28,-0.359 -83.45,-2.524 c 13.2,34.422 22.89,60.555 28.99,78.461 68.64,-0.48 140.5,-0.73 215.7,-0.73 l 128.63,0.348 68.84,0.382 c -13.56,-33.992 -23.38,-60.117 -29.4,-78.461 -42.47,2.18 -83.56,3.239 -123.18,3.239 l -27.6,0 -25.8,-65.414 -93.04,-251.7 -14.6,-42.168 c -6.01,-17.441 -12.07,-35.539 -18.24,-54.343 l -54.29,0.711 c -5.99,0 -25.55,-0.262 -58.71,-0.711" /></g></g></svg>