<?xml version="1.0" encoding="UTF-8" standalone="no"?>
<!-- Created with Inkscape (http://www.inkscape.org/) -->

<svg
   xmlns:dc="http://purl.org/dc/elements/1.1/"
   xmlns:cc="http://creativecommons.org/ns#"
   xmlns:rdf="http://www.w3.org/1999/02/22-rdf-syntax-ns#"
   xmlns:svg="http://www.w3.org/2000/svg"
   xmlns="http://www.w3.org/2000/svg"
   xmlns:sodipodi="http://sodipodi.sourceforge.net/DTD/sodipodi-0.dtd"
   xmlns:inkscape="http://www.inkscape.org/namespaces/inkscape"
   width="152.07381"
   height="28.819"
   viewBox="0 0 40.236194 7.6250272"
   version="1.1"
   id="svg1140"
   inkscape:version="0.92.0 r15299"
   sodipodi:docname="peacehealth.svg">
  <defs
     id="defs1134" />
  <sodipodi:namedview
     id="base"
     pagecolor="#ffffff"
     bordercolor="#666666"
     borderopacity="1.0"
     inkscape:pageopacity="0.0"
     inkscape:pageshadow="2"
     inkscape:zoom="5.8599183"
     inkscape:cx="76.536903"
     inkscape:cy="14.4095"
     inkscape:document-units="mm"
     inkscape:current-layer="layer1"
     showgrid="false"
     fit-margin-top="0"
     fit-margin-left="0"
     fit-margin-right="0"
     fit-margin-bottom="0"
     units="px"
     inkscape:window-width="1280"
     inkscape:window-height="744"
     inkscape:window-x="-4"
     inkscape:window-y="-4"
     inkscape:window-maximized="1" />
  <metadata
     id="metadata1137">
    <rdf:RDF>
      <cc:Work
         rdf:about="">
        <dc:format>image/svg+xml</dc:format>
        <dc:type
           rdf:resource="http://purl.org/dc/dcmitype/StillImage" />
        <dc:title></dc:title>
      </cc:Work>
    </rdf:RDF>
  </metadata>
  <g
     inkscape:label="Layer 1"
     inkscape:groupmode="layer"
     id="layer1"
     transform="translate(-51.073718,-185.84225)">
    <g
       transform="translate(47.265154,-96.999854)"
       id="g1117">
      <path
         id="path1078"
         d="m 41.527829,284.86272 -0.842434,0.34448 0.04286,0.10742 c 0.09604,-0.0325 0.165894,-0.0489 0.208756,-0.0489 0.05371,0 0.09604,0.0132 0.127794,0.0397 0.03175,0.0265 0.0553,0.0767 0.07064,0.15055 0.01561,0.0738 0.02328,0.27146 0.02328,0.59346 v 2.549 c 0,0.17621 -0.01244,0.29289 -0.03704,0.35057 -0.02461,0.0574 -0.05741,0.096 -0.09842,0.11642 -0.0717,0.0389 -0.170127,0.0587 -0.29501,0.0587 v 0.11059 h 1.395677 v -0.11059 c -0.143404,0 -0.244475,-0.0161 -0.302948,-0.0479 -0.05847,-0.0317 -0.09816,-0.0712 -0.119856,-0.11827 -0.02143,-0.0474 -0.03228,-0.16722 -0.03228,-0.35957 v -1.48828 c 0.151606,-0.16193 0.281781,-0.26961 0.390525,-0.32279 0.108743,-0.0532 0.213518,-0.0802 0.313795,-0.0802 0.09816,0 0.182298,0.0243 0.252148,0.0722 0.06985,0.0479 0.120386,0.12038 0.1524,0.21669 0.03149,0.096 0.04762,0.29819 0.04762,0.6059 v 0.99615 c 0,0.15981 -0.0032,0.25612 -0.0093,0.28893 -0.02064,0.0781 -0.05636,0.13705 -0.107686,0.17674 -0.05133,0.04 -0.142345,0.0603 -0.273579,0.0603 h -0.06456 v 0.11059 h 1.383506 v -0.11059 c -0.131233,0 -0.221191,-0.0146 -0.270404,-0.0431 -0.04921,-0.0286 -0.08387,-0.0675 -0.10451,-0.11668 -0.02884,-0.0656 -0.04313,-0.18759 -0.04313,-0.36592 v -0.99616 c 0,-0.34845 -0.01931,-0.5887 -0.05874,-0.71993 -0.0553,-0.18838 -0.140229,-0.32649 -0.254794,-0.41487 -0.115093,-0.0881 -0.252148,-0.13202 -0.412485,-0.13202 -0.133086,0 -0.266436,0.0352 -0.399521,0.10583 -0.13335,0.0709 -0.313796,0.23098 -0.541337,0.48101 v -2.05951 z m -1.765036,0.6305 c -0.08387,0.2069 -0.149489,0.34925 -0.196585,0.4273 -0.0926,0.14764 -0.197379,0.27517 -0.315119,0.38285 -0.117739,0.10716 -0.233098,0.18362 -0.346075,0.2286 v 0.10187 h 0.445823 v 1.89362 c 0,0.2032 0.0217,0.35348 0.06456,0.45059 0.04339,0.0974 0.109538,0.17224 0.200025,0.22463 0.08996,0.0521 0.182298,0.0786 0.27649,0.0786 0.139435,0 0.274902,-0.0508 0.406135,-0.1524 0.131234,-0.10134 0.232569,-0.25241 0.304271,-0.4535 H 40.48246 c -0.03493,0.082 -0.08414,0.1442 -0.147638,0.186 -0.0635,0.0421 -0.129116,0.063 -0.19685,0.063 -0.08202,0 -0.14896,-0.0315 -0.201347,-0.0952 -0.05239,-0.0635 -0.07858,-0.18654 -0.07858,-0.3691 v -1.82615 h 0.657754 v -0.21537 h -0.657754 v -0.92525 z m -1.515533,-0.6305 -0.839258,0.34448 0.05212,0.10742 c 0.08228,-0.0325 0.149225,-0.0489 0.2032,-0.0489 0.04921,0 0.08943,0.0132 0.121443,0.0397 0.03149,0.0267 0.05477,0.0762 0.06906,0.14896 0.01455,0.0725 0.0217,0.26803 0.0217,0.58579 v 2.55826 c 0,0.17409 -0.01376,0.2921 -0.03995,0.35348 -0.02699,0.0617 -0.0635,0.10557 -0.11086,0.13229 -0.0471,0.0267 -0.135202,0.04 -0.264319,0.04 v 0.11059 h 1.380861 v -0.11059 c -0.145786,0 -0.245269,-0.0151 -0.298186,-0.0447 -0.05371,-0.0296 -0.09313,-0.073 -0.118798,-0.13044 -0.02566,-0.0577 -0.03836,-0.17436 -0.03836,-0.35057 v -3.73565 z m -2.619375,4.07405 c -0.114829,0 -0.216429,-0.049 -0.304535,-0.14631 -0.08811,-0.0974 -0.132027,-0.21987 -0.132027,-0.36751 0,-0.11668 0.03466,-0.22437 0.104775,-0.32279 0.06958,-0.0984 0.185208,-0.19288 0.347397,-0.28284 0.08996,-0.0513 0.289984,-0.13838 0.599546,-0.26141 v 1.07341 c -0.254529,0.20479 -0.459581,0.30745 -0.615156,0.30745 m 0.707231,0.24897 c 0.05927,0.0698 0.139171,0.10478 0.239713,0.10478 0.209021,0 0.428096,-0.15372 0.658018,-0.46117 v -0.17198 c -0.123031,0.12277 -0.20611,0.19764 -0.248972,0.22463 -0.02487,0.0143 -0.05345,0.0212 -0.08625,0.0212 -0.03043,0 -0.05794,-0.01 -0.08176,-0.0304 -0.02328,-0.0204 -0.04022,-0.0609 -0.05053,-0.12144 -0.01005,-0.0606 -0.01561,-0.22516 -0.01561,-0.49345 v -0.9562 c 0,-0.27279 -0.01799,-0.45297 -0.0553,-0.54134 -0.05741,-0.1352 -0.146314,-0.23469 -0.267229,-0.29819 -0.159808,-0.0839 -0.36486,-0.12594 -0.614891,-0.12594 -0.325967,0 -0.579173,0.0736 -0.759619,0.22119 -0.180446,0.14764 -0.270404,0.30957 -0.270404,0.48604 0,0.0921 0.02408,0.16484 0.07197,0.21828 0.04842,0.0529 0.110067,0.0799 0.186002,0.0799 0.07805,0 0.141023,-0.0259 0.189442,-0.077 0.04815,-0.0511 0.07197,-0.12382 0.07197,-0.21828 l -0.0058,-0.17833 c 0,-0.0902 0.03889,-0.17039 0.116417,-0.23971 0.07594,-0.0699 0.178329,-0.10451 0.307445,-0.10451 0.170127,0 0.299773,0.0519 0.389202,0.15663 0.0889,0.10451 0.13388,0.2974 0.13388,0.57812 v 0.11059 c -0.483923,0.17648 -0.829998,0.32597 -1.037696,0.449 -0.208227,0.12303 -0.354542,0.25427 -0.43815,0.3937 -0.06165,0.10028 -0.0926,0.21934 -0.0926,0.35666 0,0.21722 0.06297,0.39238 0.189177,0.52573 0.126206,0.13308 0.286279,0.19976 0.481277,0.19976 0.124883,0 0.242887,-0.0257 0.353748,-0.0767 0.07355,-0.0349 0.255323,-0.16404 0.544248,-0.38762 0.0021,0.16775 0.03254,0.28655 0.09234,0.35613 M 32.5659,286.74928 c 0.134144,-0.1323 0.286279,-0.19844 0.456671,-0.19844 0.110596,0 0.216694,0.0328 0.318294,0.0984 0.101335,0.0656 0.1778,0.15584 0.228864,0.27067 0.03281,0.0736 0.05424,0.20082 0.06456,0.381 h -1.303602 c 0.02249,-0.23548 0.100806,-0.41963 0.235214,-0.55165 m 1.711325,0.72998 c 0,-0.34819 -0.101864,-0.62653 -0.3048,-0.83449 -0.202671,-0.20823 -0.461962,-0.31248 -0.77761,-0.31248 -0.373063,0 -0.683154,0.1352 -0.930011,0.40429 -0.247385,0.26961 -0.370416,0.64531 -0.370416,1.12686 0,0.44529 0.120385,0.7993 0.361156,1.06256 0.240771,0.26326 0.530489,0.39503 0.868362,0.39503 0.311944,0 0.570971,-0.11536 0.77814,-0.34608 0.206904,-0.23045 0.331787,-0.4863 0.375179,-0.76703 l -0.09551,-0.0614 c -0.09208,0.24606 -0.206375,0.41989 -0.342636,0.52123 -0.136525,0.1016 -0.297127,0.15213 -0.481277,0.15213 -0.276754,0 -0.517525,-0.11879 -0.722577,-0.35665 -0.204788,-0.2376 -0.306388,-0.56595 -0.304006,-0.98399 z m -5.716323,-1.67243 c 0,-0.20505 0.01244,-0.34078 0.03678,-0.40746 0.02461,-0.0667 0.06906,-0.11642 0.132292,-0.14922 0.08811,-0.0471 0.181769,-0.0707 0.279929,-0.0707 h 0.150548 v -0.11403 h -1.786467 v 0.11403 h 0.147638 c 0.09869,0 0.192881,0.0246 0.28284,0.0736 0.0635,0.0373 0.105568,0.0812 0.12647,0.13229 0.02646,0.0677 0.03969,0.20796 0.03969,0.42148 v 2.69028 c 0,0.25003 -0.02461,0.40799 -0.07382,0.47361 -0.07805,0.10054 -0.202935,0.15028 -0.375179,0.15028 h -0.147638 v 0.11404 h 1.786467 v -0.11404 h -0.150548 c -0.09816,0 -0.191823,-0.0246 -0.279929,-0.0736 -0.06562,-0.0371 -0.108744,-0.0812 -0.128852,-0.13203 -0.02699,-0.068 -0.03995,-0.20717 -0.03995,-0.41831 v -1.26973 h 1.937014 v 1.26973 c 0,0.25003 -0.02593,0.40799 -0.07699,0.47361 -0.07805,0.10054 -0.201613,0.15028 -0.37174,0.15028 h -0.147637 v 0.11404 H 31.6848 v -0.11404 h -0.147638 c -0.09842,0 -0.192881,-0.0246 -0.282839,-0.0736 -0.06324,-0.0371 -0.105569,-0.0812 -0.125942,-0.13203 -0.02699,-0.068 -0.03995,-0.20717 -0.03995,-0.41831 v -2.69028 c 0,-0.20505 0.01164,-0.34078 0.03545,-0.40746 0.02328,-0.0667 0.06826,-0.11642 0.133879,-0.14922 0.08784,-0.0471 0.18124,-0.0707 0.279665,-0.0707 h 0.147637 v -0.11403 h -1.783027 v 0.11403 h 0.147638 c 0.0979,0 0.191558,0.0246 0.279664,0.0736 0.06562,0.0373 0.108744,0.0812 0.129117,0.13229 0.02672,0.0677 0.03995,0.20796 0.03995,0.42148 v 1.19301 h -1.937015 v -1.19301 z m -3.090598,0.94245 c 0.13388,-0.1323 0.28628,-0.19844 0.456407,-0.19844 0.11086,0 0.216958,0.0328 0.318293,0.0984 0.1016,0.0656 0.1778,0.15584 0.228865,0.27067 0.03307,0.0736 0.05424,0.20082 0.06456,0.381 h -1.303602 c 0.02275,-0.23548 0.101336,-0.41963 0.235479,-0.55165 m 1.711061,0.72998 c 0,-0.34819 -0.101865,-0.62653 -0.304536,-0.83449 -0.202935,-0.20823 -0.462227,-0.31248 -0.777875,-0.31248 -0.373062,0 -0.683154,0.1352 -0.93001,0.40429 -0.247385,0.26961 -0.370681,0.64531 -0.370681,1.12686 0,0.44529 0.120914,0.7993 0.361685,1.06256 0.240506,0.26326 0.530225,0.39503 0.868363,0.39503 0.311414,0 0.570706,-0.11536 0.777875,-0.34608 0.206639,-0.23045 0.332052,-0.4863 0.375179,-0.76703 l -0.09525,-0.0614 c -0.09234,0.24606 -0.206375,0.41989 -0.3429,0.52123 -0.136525,0.1016 -0.296863,0.15213 -0.481013,0.15213 -0.277018,0 -0.517789,-0.11879 -0.722577,-0.35665 -0.205052,-0.2376 -0.306387,-0.56595 -0.304271,-0.98399 z m -2.880784,0.64267 c -0.106891,0.24818 -0.216164,0.41937 -0.329141,0.5133 -0.159809,0.13758 -0.340254,0.20611 -0.540809,0.20611 -0.280987,0 -0.504031,-0.12859 -0.668866,-0.38603 -0.1651,-0.25718 -0.24765,-0.55377 -0.24765,-0.89006 0,-0.32993 0.08308,-0.59531 0.249237,-0.7964 0.124884,-0.1516 0.289984,-0.22754 0.495036,-0.22754 0.127,0 0.226483,0.0307 0.298185,0.0926 0.0717,0.0632 0.113242,0.15584 0.124619,0.27675 0.01111,0.12092 0.03413,0.20294 0.06906,0.2458 0.06165,0.0781 0.152665,0.11695 0.273579,0.11695 0.09049,0 0.160338,-0.0244 0.210873,-0.0722 0.05001,-0.0482 0.07514,-0.11112 0.07514,-0.18917 0,-0.15769 -0.08917,-0.30983 -0.267494,-0.45641 -0.178329,-0.14684 -0.405871,-0.21987 -0.682625,-0.21987 -0.368829,0 -0.685006,0.13811 -0.948531,0.41487 -0.26326,0.27649 -0.395023,0.63632 -0.395023,1.07897 0,0.45746 0.118798,0.82047 0.356658,1.0885 0.237861,0.26855 0.516467,0.40269 0.836348,0.40269 0.268552,0 0.513556,-0.10001 0.734748,-0.29977 0.221456,-0.20003 0.370152,-0.48525 0.445823,-0.85619 z m -4.134379,0.81492 c -0.114829,0 -0.216164,-0.049 -0.30427,-0.14631 -0.08811,-0.0974 -0.132292,-0.21987 -0.132292,-0.36751 0,-0.11668 0.03493,-0.22437 0.10451,-0.32279 0.06985,-0.0984 0.185473,-0.19288 0.347663,-0.28284 0.08996,-0.0513 0.289983,-0.13838 0.599546,-0.26141 v 1.07341 c -0.254265,0.20479 -0.459317,0.30745 -0.615157,0.30745 m 0.707232,0.24897 c 0.05953,0.0698 0.139435,0.10478 0.239977,0.10478 0.209021,0 0.42836,-0.15372 0.658018,-0.46117 v -0.17198 c -0.123031,0.12277 -0.20611,0.19764 -0.249237,0.22463 -0.02461,0.0143 -0.05318,0.0212 -0.08599,0.0212 -0.03069,0 -0.05794,-0.01 -0.08149,-0.0304 -0.02355,-0.0204 -0.04048,-0.0609 -0.0508,-0.12144 -0.01032,-0.0606 -0.01535,-0.22516 -0.01535,-0.49345 v -0.9562 c 0,-0.27279 -0.01852,-0.45297 -0.0553,-0.54134 -0.05742,-0.1352 -0.146579,-0.23469 -0.267494,-0.29819 -0.159808,-0.0839 -0.36486,-0.12594 -0.614891,-0.12594 -0.325967,0 -0.579173,0.0736 -0.759619,0.22119 -0.180446,0.14764 -0.270404,0.30957 -0.270404,0.48604 0,0.0921 0.02408,0.16484 0.07223,0.21828 0.04815,0.0529 0.110067,0.0799 0.186002,0.0799 0.07779,0 0.140758,-0.0259 0.189177,-0.077 0.04789,-0.0511 0.07223,-0.12382 0.07223,-0.21828 l -0.0063,-0.17833 c 0,-0.0902 0.03889,-0.17039 0.116946,-0.23971 0.07567,-0.0699 0.178329,-0.10451 0.307446,-0.10451 0.170127,0 0.299773,0.0519 0.388937,0.15663 0.08916,0.10451 0.13388,0.2974 0.13388,0.57812 v 0.11059 c -0.483923,0.17648 -0.829734,0.32597 -1.037696,0.449 -0.208227,0.12303 -0.354277,0.25427 -0.43815,0.3937 -0.06165,0.10028 -0.09234,0.21934 -0.09234,0.35666 0,0.21722 0.06297,0.39238 0.189177,0.52573 0.125942,0.13308 0.286279,0.19976 0.481013,0.19976 0.125148,0 0.242887,-0.0257 0.353748,-0.0767 0.07382,-0.0349 0.255058,-0.16404 0.544248,-0.38762 0.0019,0.16775 0.03254,0.28655 0.09208,0.35613 m -3.769255,-2.43654 c 0.134409,-0.1323 0.286544,-0.19844 0.456671,-0.19844 0.110861,0 0.216694,0.0328 0.318294,0.0984 0.101335,0.0656 0.1778,0.15584 0.229129,0.27067 0.03281,0.0736 0.05424,0.20082 0.06456,0.381 h -1.303867 c 0.02275,-0.23548 0.101071,-0.41963 0.235214,-0.55165 m 1.711325,0.72998 c 0,-0.34819 -0.1016,-0.62653 -0.304535,-0.83449 -0.202935,-0.20823 -0.462227,-0.31248 -0.777875,-0.31248 -0.373062,0 -0.683154,0.1352 -0.93001,0.40429 -0.247121,0.26961 -0.370682,0.64531 -0.370682,1.12686 0,0.44529 0.120386,0.7993 0.361421,1.06256 0.240771,0.26326 0.530225,0.39503 0.868627,0.39503 0.311415,0 0.570707,-0.11536 0.777875,-0.34608 0.206904,-0.23045 0.332052,-0.4863 0.375179,-0.76703 l -0.09551,-0.0614 c -0.09207,0.24606 -0.206375,0.41989 -0.342636,0.52123 -0.136525,0.1016 -0.296862,0.15213 -0.481277,0.15213 -0.276754,0 -0.517525,-0.11879 -0.722577,-0.35665 -0.205052,-0.23786 -0.306387,-0.56595 -0.304535,-0.98399 z m -4.61592,-2.10635 c 0.164041,-0.0386 0.298185,-0.0585 0.40296,-0.0585 0.171979,0 0.325702,0.0386 0.461169,0.11536 0.135202,0.077 0.239712,0.19288 0.313531,0.3474 0.07382,0.15478 0.110596,0.32252 0.110596,0.5027 0,0.26221 -0.07726,0.47625 -0.23204,0.64109 -0.154781,0.1651 -0.338666,0.24765 -0.55192,0.24765 -0.05953,0 -0.131234,-0.005 -0.215107,-0.0154 -0.08414,-0.0103 -0.180446,-0.0259 -0.289189,-0.046 z m 0.375179,1.97406 c 0.116946,0.0146 0.225425,0.0214 0.325967,0.0214 0.409839,0 0.727075,-0.1061 0.951706,-0.31962 0.224366,-0.21325 0.33655,-0.49 0.33655,-0.83026 0,-0.25003 -0.07382,-0.46619 -0.221457,-0.64876 -0.147372,-0.18203 -0.328877,-0.31194 -0.544247,-0.38893 -0.215107,-0.077 -0.509323,-0.11563 -0.882386,-0.11563 h -1.528233 v 0.11404 h 0.156898 c 0.157956,0 0.276754,0.0452 0.356658,0.1352 0.0553,0.0638 0.08308,0.22675 0.08308,0.48895 v 2.69372 c 0,0.2376 -0.02064,0.38868 -0.06138,0.45218 -0.07593,0.11483 -0.202142,0.17171 -0.378354,0.17171 h -0.156898 v 0.11404 h 1.786467 v -0.11404 h -0.159809 c -0.157956,0 -0.275696,-0.045 -0.353483,-0.1352 -0.05742,-0.0635 -0.08625,-0.22648 -0.08625,-0.48895 v -1.21444 c 0.13335,0.0291 0.258233,0.0505 0.375179,0.0646"
         inkscape:connector-curvature="0"
         style="fill:#005695;stroke:#005695;stroke-width:0.05291667px" />
      <rect
         id="rect1080"
         height="7.6250272"
         width="7.4358501"
         y="282.8421"
         x="3.8085644"
         style="fill:#005695;stroke-width:0.26458332" />
      <path
         id="path1082"
         d="m 6.8597395,288.96349 c 0.5294313,0.11616 0.8202084,-0.0455 0.8202084,-0.0455 -0.1521355,0.32596 -0.4995334,0.34872 -0.6514042,0.33416 -1.1273896,-0.11006 -1.470025,-1.06891 -1.5221479,-1.61501 -0.1285875,-1.34885 -0.5961062,-1.17528 -0.7418917,-1.152 -0.142875,0.0214 -0.109802,-0.0339 -0.097631,-0.0537 0.5138208,-1.02208 1.1062229,-0.51858 1.5745354,-0.16087 0.5659437,0.43207 0.7596187,0.47837 1.2221104,-0.0921 0.4614333,-0.57044 1.0691812,-1.29514 1.8325041,-1.28032 0.7032625,0.0135 1.128977,0.54345 1.187185,0.61886 0.0463,0.0598 -0.380471,-0.37174 -1.1033121,-0.34925 -0.8921749,0.027 -1.4525624,1.06389 -1.703652,1.30731 -0.2193396,0.21431 -0.7471833,0.64955 -1.5925271,-0.0974 -0.8789458,-0.77655 -1.2176125,-0.0214 -1.2176125,-0.0214 0,0 0.6731,-0.0286 0.7821084,0.92869 0.07329,0.64346 0.357452,1.48934 1.211527,1.67851"
         inkscape:connector-curvature="0"
         style="fill:#ffffff;stroke-width:0.26458332" />
      <path
         id="path1084"
         d="m 8.9102603,286.5153 c 0.3571875,-0.42068 0.8662459,-0.94562 1.8145127,-0.022 0,0 -0.167746,-0.5072 -0.657225,-0.7186 -0.7426856,-0.31856 -1.205971,0.16853 -1.6316856,0.73263 -0.5254625,0.69453 -1.2808479,0.57864 -1.2808479,0.57864 0.3137959,0.1524 0.9067271,0.43154 1.7552458,-0.57071"
         inkscape:connector-curvature="0"
         style="fill:#ffffff;stroke-width:0.26458332" />
      <path
         id="path1086"
         d="m 10.716306,287.24211 c -1.1128373,-0.75988 -1.2639144,-0.0876 -1.962679,0.2929 -0.5373687,0.29342 -1.0932583,0.0243 -1.0932583,0.0243 0.5987521,0.1188 0.8924396,-0.0757 1.0966979,-0.23813 0.3675062,-0.29104 0.5402791,-0.76464 1.1276541,-0.71146 0.3802063,0.0333 0.6950603,0.40058 0.8315853,0.63235"
         inkscape:connector-curvature="0"
         style="fill:#ffffff;stroke-width:0.26458332" />
      <path
         id="path1088"
         d="m 6.1104395,287.6591 c 0,0 0.549275,-0.3691 1.0181167,-0.0852 0.2939521,0.17754 0.4415896,0.44053 0.7244292,0.81704 0.284427,0.37703 0.7191374,1.1004 1.9740562,0.34448 -0.7844896,1.3552 -1.6496771,0.37201 -2.1293667,-0.28495 C 7.3722374,288.00464 7.1671854,287.435 6.1104395,287.6591"
         inkscape:connector-curvature="0"
         style="fill:#ffffff;stroke-width:0.26458332" />
    </g>
  </g>
</svg>
