<svg version="1.1" id="Layer_1" xmlns="http://www.w3.org/2000/svg" xmlns:xlink="http://www.w3.org/1999/xlink" x="0" y="0" viewBox="0 0 1671.2 1215.9" style="enable-background:new 0 0 1671.2 1215.9" xml:space="preserve"><style>.st0{clip-path:url(#SVGID_2_);fill:#232e69}</style><g><defs><path id="SVGID_1_" d="M0 0h1671.2v1215.9H0z"/></defs><clipPath id="SVGID_2_"><use xlink:href="#SVGID_1_" style="overflow:visible"/></clipPath><path class="st0" d="M42.4 1107.5s37.4 34.1 78.9 34.1c16.6 0 34.6-6.5 34.6-26.3 0-39.2-148.5-37.8-148.5-139.3 0-60.9 51.2-101 116.7-101 71 0 106.1 37.4 106.1 37.4l-34.1 66s-33.2-29.1-72.9-29.1c-16.6 0-35.1 7.4-35.1 25.8 0 41.5 148.5 34.1 148.5 138.4 0 54.9-42 102.4-116.2 102.4-77.5 0-120.4-47-120.4-47l42.4-61.4zM475.6 1141.2H372.7l-19.8 69.2h-83L382 880.6h84.9L579 1210.4h-83l-20.4-69.2zm-51.7-185.4s-7.4 36-13.4 56.7l-18.9 64.1h65l-18.5-64.1c-6-20.8-13.4-56.7-13.4-56.7h-.8zM782.8 875.1c81.6 0 123.6 46.6 123.6 46.6L869 982.5s-36.9-33.7-82.6-33.7c-63.2 0-93.2 46.6-93.2 94.1 0 48.9 32.3 99.2 93.2 99.2 49.8 0 87.6-40.6 87.6-40.6l41.5 59s-46.6 55.4-132.8 55.4c-103.3 0-173-73.3-173-171.1.1-95.9 73.9-169.7 173.1-169.7M1131 875.1c99.6 0 172.5 73.8 172.5 168.4 0 96.9-72.9 172.5-172.5 172.5s-172.5-75.7-172.5-172.5c0-94.6 72.9-168.4 172.5-168.4m0 267c49.4 0 89-42.4 89-98.7 0-54-39.7-94.6-89-94.6-49.4 0-89 40.6-89 94.6 0 56.3 39.7 98.7 89 98.7M1527.7 875.1c84.4 0 126.8 43.8 126.8 43.8l-38.7 60.4s-33.7-30.4-80.3-30.4c-69.2 0-97.3 44.3-97.3 93.2 0 62.7 43.4 100.1 94.6 100.1 38.7 0 66.9-24 66.9-24v-25.4h-46.6v-68.7h118.1v186.4h-67.3v-9.2c0-6.9.5-13.8.5-13.8h-.9s-31.8 28.6-86.7 28.6c-84.4 0-161.9-63.2-161.9-171.1-.2-96.1 72.3-169.9 172.8-169.9"/><path d="M1328.6 643.5v-25.8h35.3v-35.3h35.3v-35.3h35.3v-35.3h70.5v35.3h35.3v35.3h35.3v35.3h35.3v33.6h39.8C1567.2 278.9 1235.1 0 837.7 0 433.3 0 96.4 288.9 20.8 671.3h8L95.7 655l49.1-60.6 38.8-32.5 62.1-8.9 30.2 35.5 15.2 29.5 50.2 29.6 25.5 11.8 22.1 34.3 33.4-16.6 33.6-4.1 23.7 19.5 23.3 20.1 52.9 10.6v-42.6h24.3l38.1-23v-56.5H603v-40h28.2c3.8-91.6 54.4-166.8 121.4-186.2v-13.5h8.8v-42.1h3.4v-8.9h5.3c1.8-8.7 6.6-15.7 12.9-18.7l5.4-9.3c-1.9-.4-3.5-1.9-3.5-4 0-2.4 2-4.3 4.3-4.3 2.4 0 4.4 1.9 4.4 4.3 0 2-1.6 3.6-3.5 4l5.3 9.1c6.8 2.7 12.2 9.8 14 19h5.2v8.9h4.8v42.1h7.5v14.7c62.8 23.3 111.4 97.4 115.2 185h31.5v40h-16.1v50.3h50.9V619h13.6V480.6h6.1v-10.3l4.9-5.2v-22l20.9-14.2 45.5-1.3v-.1h11.1l29.5 10.4v14.3h7.4V469l3.7 3.9v178.5h18.7V498.8h17.2V482h98.5v15.5h27v146h16.1z" style="clip-path:url(#SVGID_2_);fill:#0fa5df"/></g></svg>