<svg xmlns="http://www.w3.org/2000/svg" viewBox="0 0 381.67 372.13">
    <defs>
        <style>.cls-1{fill:#f04f23;}.cls-1,.cls-2,.cls-3,.cls-4,.cls-5,.cls-6{stroke-width:0px;}.cls-2{fill:#8062aa;}.cls-3{fill:#47ba7e;}.cls-4{fill:#46b8e9;}.cls-5{fill:#f37264;}.cls-6{fill:#2e3039;}</style>
    </defs>
    <g id="Surfaces">
        <g id="Publishing_Surface">
            <g id="Outline_no_shadow">
                <rect class="cls-6" width="381.67" height="372.13" rx="67.59" ry="67.59"/>
            </g>
        </g>
    </g>
    <path class="cls-4" d="M190.83,192.57c0-25.39,20.58-45.98,45.98-45.98h0c25.39,0,45.98,20.58,45.98,45.98h0c0,25.39-20.58,45.98-45.98,45.98h0c-25.39,0-45.98-20.58-45.98-45.98h0Z"/>
    <path class="cls-3" d="M98.88,284.52c0-25.39,20.58-45.98,45.98-45.98h45.98v45.98c0,25.39-20.58,45.98-45.98,45.98h0c-25.39,0-45.98-20.58-45.98-45.98h0Z"/>
    <path class="cls-5" d="M190.83,54.65v91.95h45.98c25.39,0,45.98-20.58,45.98-45.98h0c0-25.39-20.58-45.98-45.98-45.98h-45.98Z"/>
    <path class="cls-1" d="M98.88,100.62c0,25.39,20.58,45.98,45.98,45.98h45.98V54.65h-45.98c-25.39,0-45.98,20.58-45.98,45.98h0Z"/>
    <path class="cls-2" d="M98.88,192.57c0,25.39,20.58,45.98,45.98,45.98h45.98v-91.95h-45.98c-25.39,0-45.98,20.58-45.98,45.98h0Z"/>
</svg>