<svg xmlns="http://www.w3.org/2000/svg" xmlns:xlink="http://www.w3.org/1999/xlink" viewBox="0 0 381.67 372.13"><defs><style>.cls-1{fill:#fff;}.cls-1,.cls-2,.cls-3,.cls-4,.cls-5,.cls-6{stroke-width:0px;}.cls-1,.cls-6{fill-rule:evenodd;}.cls-7{isolation:isolate;}.cls-2{fill:#4497d2;}.cls-3{fill:#303748;}.cls-4{fill:#0066a9;}.cls-5{fill:#2179bf;}.cls-6{fill:url(#linear-gradient);}.cls-8{mask:url(#mask);}.cls-9{mix-blend-mode:overlay;opacity:.25;}</style><mask id="mask" x="60" y="55.98" width="261.67" height="260.16" maskUnits="userSpaceOnUse"><g id="mask0"><path class="cls-1" d="M245.6,315.03c4.12,1.6,8.82,1.5,12.97-.5l53.84-25.91c5.66-2.72,9.26-8.45,9.26-14.73V98.23c0-6.28-3.6-12.01-9.26-14.73l-53.84-25.91c-5.46-2.63-11.84-1.98-16.63,1.5-.68.5-1.34,1.05-1.95,1.66l-103.07,94.03-44.9-34.08c-4.18-3.17-10.03-2.91-13.91.62l-14.4,13.1c-4.75,4.32-4.75,11.79-.01,16.11l38.93,35.52-38.93,35.52c-4.74,4.33-4.74,11.8.01,16.11l14.4,13.1c3.88,3.53,9.73,3.79,13.91.62l44.9-34.08,103.07,94.03c1.63,1.63,3.55,2.86,5.6,3.66ZM256.33,126.7l-78.21,59.37,78.21,59.37v-118.73Z"/></g></mask><linearGradient id="linear-gradient" x1="190.75" y1="-322.69" x2="190.75" y2="-582.85" gradientTransform="translate(0 -266.7) scale(1 -1)" gradientUnits="userSpaceOnUse"><stop offset="0" stop-color="#fff"/><stop offset="1" stop-color="#fff" stop-opacity="0"/></linearGradient></defs><g class="cls-7"><g id="Layer_1"><g id="Layer_2"><g id="Surfaces"><g id="Publishing_Surface"><g id="Outline_no_shadow"><rect class="cls-3" y="0" width="381.67" height="372.13" rx="67.59" ry="67.59"/></g></g></g></g><g class="cls-8"><path class="cls-4" d="M312.41,83.54l-53.88-25.94c-6.24-3-13.69-1.74-18.59,3.16L63.55,221.58c-4.74,4.33-4.74,11.8.01,16.11l14.41,13.1c3.88,3.53,9.73,3.79,13.92.62l212.42-161.14c7.13-5.41,17.36-.32,17.36,8.62v-.63c0-6.28-3.6-12-9.25-14.73Z"/><path class="cls-5" d="M312.41,288.58l-53.88,25.94c-6.24,3-13.69,1.74-18.59-3.16L63.55,150.54c-4.74-4.33-4.74-11.8.01-16.11l14.41-13.1c3.88-3.53,9.73-3.79,13.92-.62l212.42,161.14c7.13,5.41,17.36.32,17.36-8.62v.63c0,6.28-3.6,12-9.25,14.73Z"/><path class="cls-2" d="M258.53,314.53c-6.24,3-13.69,1.73-18.59-3.16,6.03,6.03,16.34,1.76,16.34-6.77V67.53c0-8.53-10.31-12.8-16.34-6.77,4.9-4.9,12.35-6.16,18.59-3.16l53.87,25.91c5.66,2.72,9.26,8.45,9.26,14.73v175.66c0,6.28-3.6,12.01-9.26,14.73l-53.87,25.91Z"/><g class="cls-9"><path class="cls-6" d="M245.44,315.03c4.12,1.6,8.82,1.5,12.97-.5l53.84-25.91c5.66-2.72,9.26-8.45,9.26-14.73V98.23c0-6.28-3.6-12.01-9.26-14.73l-53.84-25.91c-5.46-2.63-11.84-1.98-16.63,1.5-.68.5-1.34,1.05-1.95,1.66l-103.07,94.03-44.9-34.08c-4.18-3.17-10.03-2.91-13.91.62l-14.4,13.1c-4.75,4.32-4.75,11.79-.01,16.11l38.93,35.52-38.93,35.52c-4.74,4.33-4.74,11.8.01,16.11l14.4,13.1c3.88,3.53,9.73,3.79,13.91.62l44.9-34.08,103.07,94.03c1.63,1.63,3.54,2.86,5.6,3.66ZM256.17,126.7l-78.21,59.37,78.21,59.37v-118.73Z"/></g></g></g></g></svg>